<?xml version="1.0" standalone="no"?>
<!DOCTYPE svg PUBLIC "-//W3C//DTD SVG 20010904//EN"
 "http://www.w3.org/TR/2001/REC-SVG-20010904/DTD/svg10.dtd">
<svg version="1.0" xmlns="http://www.w3.org/2000/svg"
 width="151.000000pt" height="164.000000pt" viewBox="0 0 151.000000 164.000000"
 preserveAspectRatio="xMidYMid meet">

<g transform="translate(0.000000,164.000000) scale(0.100000,-0.100000)"
fill="red" stroke="none">
<path d="M772 1620 c-29 -27 -28 -58 4 -91 l25 -26 -88 -6 c-314 -20 -575
-220 -672 -516 -145 -441 151 -906 619 -972 168 -24 375 24 514 120 49 34 63
60 46 91 -20 38 -54 35 -125 -9 -35 -22 -99 -53 -142 -68 -66 -22 -95 -27
-193 -27 -192 -1 -322 53 -455 188 -180 180 -235 417 -155 656 79 235 301 408
550 427 l80 6 -16 -32 c-16 -31 -15 -34 3 -59 35 -47 62 -41 144 34 87 80 103
103 90 137 -12 32 -165 167 -189 167 -10 0 -28 -9 -40 -20z"/>
<path d="M1080 1380 c-36 -36 -26 -56 60 -119 61 -46 79 -50 103 -23 34 37 22
68 -44 117 -68 50 -90 54 -119 25z"/>
<path d="M1317 1142 c-24 -26 -21 -43 15 -117 23 -45 40 -68 55 -71 31 -8 51
1 64 30 9 19 6 34 -17 85 -38 87 -81 113 -117 73z"/>
<path d="M652 1098 c-17 -17 -17 -461 1 -476 6 -5 39 -21 72 -35 33 -14 97
-41 143 -61 98 -42 126 -45 147 -12 31 46 10 67 -132 129 l-128 56 -3 187 c-2
157 -5 191 -19 206 -18 21 -63 24 -81 6z"/>
<path d="M1420 822 c-18 -14 -22 -30 -26 -87 -4 -86 -1 -99 32 -114 21 -9 31
-9 49 3 41 27 44 185 4 206 -25 14 -34 13 -59 -8z"/>
<path d="M1347 486 c-12 -14 -35 -49 -51 -79 -28 -53 -29 -56 -12 -81 16 -26
49 -34 73 -18 20 13 83 125 83 148 0 23 -33 54 -58 54 -7 0 -23 -11 -35 -24z"/>
</g>
</svg>
