<svg id="Group_3787" data-name="Group 3787" xmlns="http://www.w3.org/2000/svg" xmlns:xlink="http://www.w3.org/1999/xlink" width="39.469" height="47.559" viewBox="0 0 39.469 47.559">
  <defs>
    <clipPath id="clip-path">
      <rect id="Rectangle_17440" data-name="Rectangle 17440" width="39.469" height="47.559" fill="#19a617"/>
    </clipPath>
  </defs>
  <g id="Group_3786" data-name="Group 3786" clip-path="url(#clip-path)">
    <path id="Path_7019" data-name="Path 7019" d="M77.369,1.118c.348.12.7.233,1.044.362a4.927,4.927,0,0,1-2.277,9.509,4.9,4.9,0,0,1-4.4-4.613A4.861,4.861,0,0,1,75.47,1.307a3.176,3.176,0,0,0,.46-.189Z" transform="translate(-56.913 -0.887)" fill="#19a617"/>
    <path id="Path_7021" data-name="Path 7021" d="M33.427,60.892A2.521,2.521,0,0,1,30.9,59.107q-2.269-5.75-4.518-11.509c-.514-1.311-1.034-2.619-1.542-3.933-.189-.49-.4-.95-1.026-.943s-.816.494-1,.974q-2.572,6.565-5.148,13.129c-.312.795-.613,1.594-.939,2.383a2.608,2.608,0,0,1-3.474,1.5,2.658,2.658,0,0,1-1.386-3.462c1.344-3.971,3.034-7.829,3.87-11.969A114.317,114.317,0,0,0,17.38,32.864a5.159,5.159,0,0,0-2.358-4.986C12.081,25.633,9.23,23.27,6.35,20.947a2.284,2.284,0,0,1-.565-3.2,2.258,2.258,0,0,1,3.282-.383q5.49,3.81,10.966,7.64a8.191,8.191,0,0,0,8.56-.148q4.9-3.667,9.8-7.32a3.638,3.638,0,0,1,1.183-.63A2.186,2.186,0,0,1,42.1,18.091a2.246,2.246,0,0,1-.632,2.728c-2.441,1.986-4.9,3.944-7.357,5.917-.843.678-1.691,1.351-2.515,2.053a3.509,3.509,0,0,0-1.333,2.979,74.493,74.493,0,0,0,2.528,16.909c.718,2.506,1.723,4.93,2.594,7.392.168.474.314.955.472,1.432a2.542,2.542,0,0,1-2.431,3.393" transform="translate(-4.249 -13.357)" fill="#19a617"/>
    <path id="Path_7022" data-name="Path 7022" d="M75.41,10.471a5.235,5.235,0,1,1,5.24-5.154,5.247,5.247,0,0,1-5.24,5.154" transform="translate(-55.66 -0.001)" fill="#19a617"/>
  </g>
</svg>
