<svg id="Group_3784" data-name="Group 3784" xmlns="http://www.w3.org/2000/svg" width="56" height="39.182" viewBox="0 0 56 39.182">
  <g id="Group_3782" data-name="Group 3782" transform="translate(0 8.607)">
    <path id="Path_5403" data-name="Path 5403" d="M2498.217-10749c.586.333.7.919.824,1.6s.539,1.141.554,1.584.333.412,0,.793-.713.507-.951.919a10.97,10.97,0,0,0-.428,1.125c-.143.285.111.555.111,1.093s-.459.872-.428,1.188a1.886,1.886,0,0,0,.6,1.125.879.879,0,0,1,.4.951,1.852,1.852,0,0,0,0,1.172,5.413,5.413,0,0,0,.364.888c.159.238.079.428.333.634s.016.682.174.888a3.936,3.936,0,0,1,.7,1c.127.38.063.729.269.951a4.031,4.031,0,0,1,.571.649c.222.333.428.57.38.871s-.032.349.238.444a.684.684,0,0,1,.428.729c-.079.27-.016.412-.269.618s-1,.316-1.252.729a2.3,2.3,0,0,1-1.062.84,3.28,3.28,0,0,0-1.505.982c-.349.539-.856.745-1.283,1.156a5.368,5.368,0,0,0-1.22,1.554c-.095.38-.7.744-.84,1.062a2.869,2.869,0,0,0-.222,1.141c0,.412.111.507-.1.745s-2.266-1.521-2.789-2.3a21.652,21.652,0,0,1-2.63-3.756,13.238,13.238,0,0,0-1.585-3.073c-.745-1-2.076-2.694-2.725-3.645a5.223,5.223,0,0,1-1.125-2.82,1.508,1.508,0,0,0-.253-1.395,3.765,3.765,0,0,1-.46-1.807,4.215,4.215,0,0,1,.238-1.886c.3-.682.618-.634.729-1.2a2.989,2.989,0,0,1,1.062-1.568c.3-.127.095.222,0,.919a6.11,6.11,0,0,0,0,2.218c.174.9.4,1.49.84,1.664s.855-.127,1.49-.476a5.347,5.347,0,0,0,1.806-1.98,6.489,6.489,0,0,0,.539-2.155c.032-.38.254-.316.491-.126a2.56,2.56,0,0,0,1.632.126c.76-.11,1.965-.38,2.028-.982a2.056,2.056,0,0,1,.871-1.457,20.963,20.963,0,0,1,2.139-1.094C2497.313-10748.588,2498.217-10749,2498.217-10749Z" transform="translate(-2483.024 10749)" fill="#c4c4c4"/>
    <path id="Path_5380" data-name="Path 5380" d="M2773.649-10485.1c1.246.634,1.965.592,1.859,1.479s-.169,1.247-.528,1.374-.211-.423-.254-.846.106-.549-.317-.908-.634-.423-.3.254.486,1.288.148.908a2.8,2.8,0,0,1-.613-1.162c-.169-.507-.528-.4-.8-.528s-.169-.528.127-.655A.9.9,0,0,1,2773.649-10485.1Z" transform="translate(-2760.765 10489.402)" fill="#878787"/>
    <path id="Path_5381" data-name="Path 5381" d="M2760.235-10304.839a3.331,3.331,0,0,1-.866,1.291.373.373,0,0,1-.7-.148c-.063-.274.528-.443.824-.591s.232-.238.38-.552S2760.235-10304.839,2760.235-10304.839Z" transform="translate(-2745.259 10312.015)" fill="#878787"/>
    <path id="Path_5382" data-name="Path 5382" d="M2721.3-10190.332c.718.253.634.845,1.035.95s.507-.211.739,0-.169.148-.549.274-.38.275-.655.212-.169-.381-.4-.761-.507-.592-.465-.676S2721.3-10190.332,2721.3-10190.332Z" transform="translate(-2707.572 10199.222)" fill="#878787"/>
    <path id="Path_5383" data-name="Path 5383" d="M2844.6-10260.132a2.248,2.248,0,0,0-.486-1.246c-.253-.359-1.331-.423-1.922-.677a3.868,3.868,0,0,0-1.817-.612,3.635,3.635,0,0,0-1.648.232c-.528.211.57.359.972.274s.74-.338,1.352,0a5.006,5.006,0,0,0,1.711.782,1.989,1.989,0,0,1,1.352.7A2.921,2.921,0,0,0,2844.6-10260.132Z" transform="translate(-2830.895 10270.373)" fill="#878787"/>
    <path id="Path_5384" data-name="Path 5384" d="M2912.133-10414.667a9.487,9.487,0,0,1,.6,1.458c.127.4-.169.147-.444-.106s-.148-.338-.655-.38.021-.254.275-.423A.649.649,0,0,0,2912.133-10414.667Z" transform="translate(-2900.211 10419.965)" fill="#878787"/>
    <path id="Path_5385" data-name="Path 5385" d="M2962.333-10511.415c.211.507.676.7.845,1.035s-.106.105-.444.169-.38-.105-.528-.528a1.2,1.2,0,0,1-.106-.676C2962.1-10511.732,2962.333-10511.415,2962.333-10511.415Z" transform="translate(-2951.478 10515.318)" fill="#878787"/>
    <path id="Path_5386" data-name="Path 5386" d="M3146.4-10422.571a5.9,5.9,0,0,1,1.563.845c.38.381.253.507,0,.317a2.7,2.7,0,0,0-1.225-.677c-.634-.126-.549-.507-.549-.591S3146.4-10422.571,3146.4-10422.571Z" transform="translate(-3139.369 10427.868)" fill="#878787"/>
    <path id="Path_5387" data-name="Path 5387" d="M3169.311-10369.487c.74.359.993.38,1.014.951s-.063.57-.38.676.084-.486-.19-.866-.592-.4-.613-.634S3169.311-10369.487,3169.311-10369.487Z" transform="translate(-3161.857 10375.523)" fill="#878787"/>
    <path id="Path_5388" data-name="Path 5388" d="M2684.05-10081c1.015.158,1.442.095,1.728.555a5.823,5.823,0,0,0,.729.84c.27.332.444.507.349.6s-.428-.048-.586-.253a3.611,3.611,0,0,0-.634-.7,3.651,3.651,0,0,0-1.3-.65,6.212,6.212,0,0,1-.951-.3C2683.148-10081,2684.05-10081,2684.05-10081Z" transform="translate(-2670.712 10091.585)" fill="#878787"/>
    <path id="Path_5389" data-name="Path 5389" d="M2664-9979a2.772,2.772,0,0,0,1.537.823c.349,0,.491-.079.713,0s.269.144.269.365-.158-.111-.349-.127a3.788,3.788,0,0,1-.634,0,2.8,2.8,0,0,1-1.157-.443A.763.763,0,0,1,2664-9979Z" transform="translate(-2650.044 9991.201)" fill="#878787"/>
    <path id="Path_5390" data-name="Path 5390" d="M2630.948-9970.858c.444.333,2.139.95,2.8,1.3s.776.429.57.491a.929.929,0,0,1-.713-.189,13.686,13.686,0,0,0-1.283-.634,12.836,12.836,0,0,1-1.3-.57c-.681-.381-1.157-.982-.808-.714A1.661,1.661,0,0,0,2630.948-9970.858Z" transform="translate(-2617.404 9983.567)" fill="#878787"/>
    <path id="Path_5391" data-name="Path 5391" d="M2594.414-9976.31a18.916,18.916,0,0,0-2.852-1.568,33.06,33.06,0,0,0-5.055-1.98c-1.157-.27-1.648-.111-1.474.095s3.28.522,4.136,1.03,4.326,2.187,4.595,2.424a1.27,1.27,0,0,0,.84.158Z" transform="translate(-2576.877 9992.186)" fill="#878787"/>
    <path id="Path_5392" data-name="Path 5392" d="M2607.929-9755.439a3.483,3.483,0,0,0-2.234-.3,18.163,18.163,0,0,1-4.247,0c-.967-.3-1.68-.7-1.379-.333a3.326,3.326,0,0,0,1.775.713,22.817,22.817,0,0,0,2.852.127c.729-.048,1.252-.095,1.648-.127s.982,0,1.172,0A1.463,1.463,0,0,0,2607.929-9755.439Z" transform="translate(-2590.439 9771.949)" fill="#878787"/>
    <path id="Path_5393" data-name="Path 5393" d="M2538.856-9688.745a.844.844,0,0,0-1.078-.285c-.475.159-.666.111-.76.364s.19.159.586,0A3.743,3.743,0,0,1,2538.856-9688.745Z" transform="translate(-2520.368 9705.905)" fill="#878787"/>
    <path id="Path_5394" data-name="Path 5394" d="M2529.153-9640c-.111.444-.333.809-1.331,1.379a5.56,5.56,0,0,0-2.107,1.838c-.459.729.158-.063,1.3-.871a8.736,8.736,0,0,1,2.028-1.125c.444-.206.475-.127-.079.411s-2.6,1.379-3.328,2.188-1.474,1.568-1.933,2.2-1.157,1.822-.681.761a15.224,15.224,0,0,1,2.044-3.486,18.411,18.411,0,0,1,2.963-2.472C2528.82-9639.73,2529.153-9640,2529.153-9640Z" transform="translate(-2510.665 9657.572)" fill="#878787"/>
    <path id="Path_5395" data-name="Path 5395" d="M3272.09-10402.279a5.667,5.667,0,0,1-.815,3.146,7.3,7.3,0,0,1-1.03,1.775c-.444.634-.729.491-.19-.27s1.03-1.03,1.22-1.886a16.728,16.728,0,0,0,.459-1.79,4.6,4.6,0,0,0,.095-.976c0-.467.125-.7.26-.372S3272.09-10402.279,3272.09-10402.279Z" transform="translate(-3265.273 10408.292)" fill="#878787"/>
    <path id="Path_5396" data-name="Path 5396" d="M3357.712-10203.753c.666.745,2.25.46,3.027-.586s.951-1.109.729-.587.143.729-.84,1.379a2.335,2.335,0,0,1-1.775.6c-.967.1-1.283-.174-1.442-.6S3357.712-10203.753,3357.712-10203.753Z" transform="translate(-3356.068 10213.862)" fill="#878787"/>
    <path id="Path_5397" data-name="Path 5397" d="M3524.555-10416a10.5,10.5,0,0,0,1,3.993c.428.665.365.729.095.443a4.475,4.475,0,0,1-.745-1.314,4.944,4.944,0,0,1-.412-1.648C3524.491-10415.065,3524.555-10416,3524.555-10416Z" transform="translate(-3523.021 10421.276)" fill="#878787"/>
    <path id="Path_5398" data-name="Path 5398" d="M3593.1-10463.1c-.317.772-1.093,1.6-1.156,2.4s-.111.808-.158.333a2.469,2.469,0,0,1,.38-1.3c.158-.285.539-1.046.808-1.537s.459-.665.428-.476A2.241,2.241,0,0,1,3593.1-10463.1Z" transform="translate(-3591.633 10468.27)" fill="#878787"/>
    <path id="Path_5399" data-name="Path 5399" d="M2690.369-10727.625a10.825,10.825,0,0,1,.967,2.932,1.594,1.594,0,0,1-.285,1.157c-.111.158-.079-.84-.127-1.315a9.95,9.95,0,0,0-.554-2c-.206-.508-.349-.682-.317-.777S2690.369-10727.625,2690.369-10727.625Z" transform="translate(-2675.288 10728.005)" fill="#878787"/>
    <path id="Path_5400" data-name="Path 5400" d="M2736.168-10701.262a7.708,7.708,0,0,1,.681,3.153,3.124,3.124,0,0,1-.206,1.22c-.095.222-.095.491-.095,0a7.044,7.044,0,0,0,.095-2.187,19.417,19.417,0,0,0-.634-2.187c-.158-.428-.317-.649-.111-.4A2.047,2.047,0,0,1,2736.168-10701.262Z" transform="translate(-2721.515 10702.513)" fill="#878787"/>
    <path id="Path_5401" data-name="Path 5401" d="M2757.967-10680.778a1.674,1.674,0,0,1,1,1.2,13.379,13.379,0,0,1,.491,2.963c-.048.412-.19-.016-.222-.428a10.931,10.931,0,0,0-.428-2.2,3.1,3.1,0,0,0-.935-1.41c-.174-.111-.238-.222-.095-.3S2757.967-10680.778,2757.967-10680.778Z" transform="translate(-2744.47 10682.046)" fill="#878787"/>
    <path id="Path_5402" data-name="Path 5402" d="M2792-9684.089a9,9,0,0,0,4.632,2.213c1.652.159,2.377.566,1.7.566a7.806,7.806,0,0,1-2.445-.431,20.255,20.255,0,0,1-3.169-.95c-1.177-.5-1.177-.905-1.517-1.652S2792-9684.089,2792-9684.089Z" transform="translate(-2784.123 9701.485)" fill="#878787"/>
  </g>
  <path id="Path_5418" data-name="Path 5418" d="M2859.659-11289.012c0-.147-.1-.307,0-.386s.258-.11.258-.364-.073-.27-.258-.491-.28-.459-.5-.459a.234.234,0,0,1-.269-.238c-.016-.11.206-.206-.254-.19s-.317.063-.523-.11-.19-.238-.444-.254-.333-.079-.38-.174-.158-.175-.38-.143a.565.565,0,0,1-.523-.206c-.048-.111-.079-.111-.349-.079s-.38.158-.523,0-.238-.048-.586,0a4.161,4.161,0,0,1-.681.079c-.269,0-.222-.032-.459.206s-.65.237-.856.316-.19.175-.285.364-.285.223-.507.429-.238.538-.475.713-.491.507-.475.6.063.175-.095.254-.079.127,0,.333-.174.443.095.6.38.158.475.27.412.174.475.333.19.031.365.27a1.406,1.406,0,0,1,.349.729c0,.237-.063.254,0,.4s.19.222.3,0a1.034,1.034,0,0,1,.3-.4c.127-.111.491-.254.634-.158s.238.079.238.222a.373.373,0,0,0,.19.333c.127.079.174.253.3.4s.111.285.57.19a1.52,1.52,0,0,0,1-.713,6.336,6.336,0,0,0,.808-1.6c.016-.4-.269-.871.095-.871a9.592,9.592,0,0,0,1.236.206A3.162,3.162,0,0,0,2859.659-11289.012Z" transform="translate(-2846.404 11292.189)" fill="#343027"/>
  <g id="Group_3783" data-name="Group 3783" transform="translate(6.552 2.805)">
    <path id="Path_5411" data-name="Path 5411" d="M2811.331-11114.942c.074-.217.317.592.507,1.1a2.392,2.392,0,0,1,.211,1.416c-.127.338-.317.422-.317.739a10.571,10.571,0,0,0,.676,1.563.528.528,0,0,1-.359.718c-.422.111-.338.19-.317.444s-.153.38-.327.522-.148.095-.074.364a.744.744,0,0,1-.148.745c-.206.254.127.555-.253.919a2.4,2.4,0,0,1-1.569.412c-.475,0-.65-.016-.681.285s-.063.333-.729.6a4.671,4.671,0,0,1-2.2,0c-.475-.079-.666-.062-.792-.189s-.127-.238-.079-.84.46-1.632.523-2.14.254-1.125,0-1.553a12.61,12.61,0,0,1-.618-1.489,1.485,1.485,0,0,1,.4-1.283.875.875,0,0,1,1.284.428c.333.649.554.792.713.491a2.955,2.955,0,0,1,.555-1.015,4.333,4.333,0,0,1,.65-.522.764.764,0,0,0,0-.935c-.238-.365.095-.682.19-.919s.824.116,1.2.137S2811.257-11114.726,2811.331-11114.942Z" transform="translate(-2804.745 11115.161)" fill="#7f5139"/>
    <path id="Path_5412" data-name="Path 5412" d="M.832,1.365c-.167,0-.354.108-.314-.187S.341.9.2.766-.092.432.066.364.321.472.409.256.429.01.6,0,.7.216.763.364.93.58.832.668.753.776.959.845s.216.363.108.422A1.476,1.476,0,0,1,.832,1.365Z" transform="translate(0.678 3.22) rotate(7)" fill="#430b00"/>
    <path id="Path_5413" data-name="Path 5413" d="M.507,1.657A1.162,1.162,0,0,1,.114.822C.133.479.458.243.615.115s0-.147-.108-.069S.075.233.016.606A1.383,1.383,0,0,0,.33,1.716C.6,2,.674,2.05.8,2.079S.507,1.657.507,1.657Z" transform="translate(0.364 2.64) rotate(7)" fill="#430b00"/>
    <path id="Path_5414" data-name="Path 5414" d="M.329,1.06A.514.514,0,0,1,0,.6.473.473,0,0,1,.329.046C.6-.082.672.089.518.167S.183.236.166.51.157.828.329.957s.077.163.052.155S.329,1.06.329,1.06Z" transform="translate(0.511 3.075) rotate(7)" fill="#430b00"/>
  </g>
  <path id="Path_5405" data-name="Path 5405" d="M2266.433-11135.8a33.588,33.588,0,0,1,3.645.333c.38.1-.428.649-.887,1.157s-.76.871-1.077,1.22.317,1.077.317,1.331.6,1.728.634,2.171.032.634.365.412a6.745,6.745,0,0,0,1.442-1.331c.4-.539,2.2-2.82,2.6-3.312s.967-1.49,1.363-1.981a3.243,3.243,0,0,0,.7-1.965c0-.744-.174-1.457-.919-1.474a33.21,33.21,0,0,0-5.1.144,24.667,24.667,0,0,0-3.454.713c-.143.079.031.459.222.95s.4.587.27,1.046A1.965,1.965,0,0,0,2266.433-11135.8Z" transform="translate(-2252.746 11141.694)" fill="#683f29"/>
  <path id="Path_5407" data-name="Path 5407" d="M654.558-10170.271a28.722,28.722,0,0,0,1.648-2.583c.317-.57.253-1,.871-1.283s5.894,1.965,7.733,3.09,6.956,4.342,7.526,4.548a7.093,7.093,0,0,0,1.046.316c.4.095.412,0,.412-.316s-.84-.872-1.537-1.363-2.076-1.774-3.343-2.789-2.282-3.09-3.169-4.024-2.393-2.044-3.011-2.9a17.186,17.186,0,0,0-2.916-3.2c-1.125-.871-2.377-.634-3.613-.079a17.236,17.236,0,0,0-4.025,2.963,10.8,10.8,0,0,0-1.173,1.379c-.158.27,1.886,2.313,2.028,3a14.617,14.617,0,0,0,.6,1.711,8.754,8.754,0,0,0,.459,1.331A1.726,1.726,0,0,0,654.558-10170.271Z" transform="translate(-625.422 10198.955)" fill="#683f29"/>
  <path id="Path_5408" data-name="Path 5408" d="M220.26-9242.79a1.465,1.465,0,0,1-1.014.238c-.729,0-.523.206-1.046.269s-.412,1.395-.555,2.393a1.54,1.54,0,0,0,1.268,1.886c.84.079,2.741-.143,3.977-.143s1.046.27,1.806.206a17.948,17.948,0,0,1,2.329-.206,3.133,3.133,0,0,0,1.537-.11c.428-.19.523-.381.349-.634s.18-.423.085-.74-.148-.264-.085-.58-.185-.571-.644-.824-.512-.18-1.194-.274a3.814,3.814,0,0,1-1.658-.655,4.78,4.78,0,0,0-1.437-.824,5.194,5.194,0,0,1-1.785-1.426c-.349-.4-.745-.634-.887-.285s-.063.887-.4,1.22A2.8,2.8,0,0,1,220.26-9242.79Z" transform="translate(-173.013 9276.052)" fill="#c4c4c4"/>
  <path id="Path_5404" data-name="Path 5404" d="M3223.981-11091.625a1.164,1.164,0,0,0,.57.951c.254.127,1.094.665,1.2,1.109a3.489,3.489,0,0,0,.206.887,14.2,14.2,0,0,1,1,2.71c.127.776-.6,2.123-.729,2.693a5.961,5.961,0,0,0-.079,1.489,7.6,7.6,0,0,1-.745,2.615,5.914,5.914,0,0,1-2.076,2.075c-.65.3-1.315.3-1.648-.3a6.222,6.222,0,0,1-.6-2.979,3.966,3.966,0,0,1,.444-1.838,2.306,2.306,0,0,0,.38-1.378,17.833,17.833,0,0,1,.57-3.677,3.008,3.008,0,0,1,.808-1.5c.206-.175.111-.237,0-.476a.469.469,0,0,1,.174-.57c.143-.095.032-.143,0-.38s.048-.27.143-.476a.625.625,0,0,0,.079-.428.888.888,0,0,1,.143-.523A.1.1,0,0,1,3223.981-11091.625Z" transform="translate(-3219.326 11094.845)" fill="#7f5139"/>
  <path id="Path_5415" data-name="Path 5415" d="M3043.61-10921.081a8.354,8.354,0,0,0,.124.944c.063.285.42.871.594,1.362a4.634,4.634,0,0,1-.048,1.949c-.1.522-.309.95-.451,1.521s-.182.793-.048.92a4.684,4.684,0,0,0,1.323.253,4.413,4.413,0,0,0,1.727-.135,2.09,2.09,0,0,0,.459-.349c.15-.11.127.071.1.19a2.135,2.135,0,0,1-.959.7,7.832,7.832,0,0,1-1.957-.127c-.737-.039-.848.016-.982-.491a4.271,4.271,0,0,1,.285-2.289,2.891,2.891,0,0,0,.246-2.045,6.5,6.5,0,0,1-.618-1.457A1.4,1.4,0,0,1,3043.61-10921.081Z" transform="translate(-3036.947 10926.961)" fill="#493421"/>
  <path id="Path_5406" data-name="Path 5406" d="M676.89-10116.385c.174-.143,1.22-1.5,1.648-2.028s.776-.982,1-.871,1.775,2.693,2.234,3.2a11.694,11.694,0,0,0,3.423,2.061c1.077.349,5.894,3.375,6.592,3.739a7.824,7.824,0,0,1,1.569.982c.253.254.84.682,1.347.317a3.921,3.921,0,0,0,1.236-1.728c.254-.682,0-1.109-.317-1.268s-2.71-1.553-3.2-1.838a27.009,27.009,0,0,1-2.931-2.789c-.666-.729-3.534-3.676-3.993-4.136a7.884,7.884,0,0,1-1.616-1.854,12.741,12.741,0,0,0-3.549-3.138c-.967-.491-2.6.175-3.3.634s-3.328,2.741-3.835,3.2-.57.253-.7.443.158.618.333.871a23.7,23.7,0,0,1,2.139,2.662,5.072,5.072,0,0,0,1.7,1.759C676.874-10116.115,676.89-10116.385,676.89-10116.385Z" transform="translate(-648.008 10144.387)" fill="#7f5139"/>
  <path id="Path_5363" data-name="Path 5363" d="M1854.927-9846a6.148,6.148,0,0,0,1.521,1.838,5.758,5.758,0,0,1,1.775,1.933c.285.7.507,1.046.856,1.236a1.792,1.792,0,0,1,.887,1.331c0,.57-.761.919-1.173,1.838s-2.123,1.87-2.345,3.138-.317,2.693-2.377,3.612-2.535,1.3-3.8,1.046a12.621,12.621,0,0,0-3.264-.349,3.935,3.935,0,0,1-2.408-.38,3.3,3.3,0,0,1-1.458-1.236c-.269-.538-1.014-.729-1.109-1.252a3.421,3.421,0,0,1,.349-1.838,15.352,15.352,0,0,1,4.009-4.357c1.505-.967,2.615-1.616,2.773-1.774s.412.253.84-.317a17.532,17.532,0,0,1,2.8-2.836A24.372,24.372,0,0,0,1854.927-9846Z" transform="translate(-1830.466 9868.915)" fill="#20728a"/>
  <path id="Path_5364" data-name="Path 5364" d="M2230.99-9103.637c.54,1.059.843,2.355,1.642,2.9s.151.843,1.124.864,0,.41-.691.432a1.141,1.141,0,0,1-1.145-.432,4.547,4.547,0,0,1-.843-1.686A5.887,5.887,0,0,1,2230.99-9103.637Z" transform="translate(-2210.985 9137.73)" fill="#145b70"/>
  <path id="Path_5365" data-name="Path 5365" d="M2391.4-8977.167c.951.333,1.109,1.046,1.68,1.3s.872.143.919.364-.238.27-.84.27-.571-.254-1.2-.523-.808-1.093-.872-1.251-.523-.223-.38-.317S2391.4-8977.167,2391.4-8977.167Z" transform="translate(-2373.537 9013.994)" fill="#145b70"/>
  <path id="Path_5366" data-name="Path 5366" d="M2467.156-9189.606c1.094.158,1.014.539,1.062.951s0,.443.206.776.206.586-.111.428a.843.843,0,0,1-.491-.745c.016-.27.111-.538-.158-.744s-.539-.3-.65-.539S2467.156-9189.606,2467.156-9189.606Z" transform="translate(-2448.969 9222.947)" fill="#145b70"/>
  <path id="Path_5367" data-name="Path 5367" d="M2600.5-9325a2.747,2.747,0,0,1,.285,1.252c0,.412-.127.19-.206-.174s.063-.127-.174.174-.586.364-.3-.11.317-.349.3-.745S2600.5-9325,2600.5-9325Z" transform="translate(-2583.298 9356.171)" fill="#145b70"/>
  <path id="Path_5368" data-name="Path 5368" d="M2688.8-9306.111c.016-.459.222-.253.253.19s-.158.982-.127,1.537a3,3,0,0,0,.222.967.87.87,0,0,1-.1.729c-.063.158-.269-.649-.412-.872a.784.784,0,0,1-.174-.823,5.3,5.3,0,0,0,.333-1.078C2688.816-9305.747,2688.8-9306.111,2688.8-9306.111Z" transform="translate(-2673.101 9337.836)" fill="#145b70"/>
  <path id="Path_5369" data-name="Path 5369" d="M2760.118-9243.153c.317-.174.206.349.143.682s.079.428-.143.428-.254.443-.285,1.173-.222.776-.222,1.362-.127-.349-.127-.95a3.935,3.935,0,0,1,.348-1.474c.127-.3.254-.333.285-.7A2.12,2.12,0,0,0,2760.118-9243.153Z" transform="translate(-2745.37 9275.654)" fill="#145b70"/>
  <path id="Path_5370" data-name="Path 5370" d="M2719.941-9341.946c.047.444.095.46,0,.729s-.127.127-.206.364-.285-.079-.158-.364.19-.127.158-.523-.143-.681,0-.507A1.855,1.855,0,0,1,2719.941-9341.946Z" transform="translate(-2704.4 9373.195)" fill="#145b70"/>
  <path id="Path_5371" data-name="Path 5371" d="M2457.063-9399c.333.285.349.507.76.744s.713.523.713.872-.158.031-.365-.285-.428-.333-.745-.587-.428-.364-.428-.522A.318.318,0,0,1,2457.063-9399Z" transform="translate(-2438.781 9428.998)" fill="#145b70"/>
  <path id="Path_5372" data-name="Path 5372" d="M2475.595-9374c.586.476.554.84,1.077,1.188s.856.428.634.649-.444-.126-.634-.332-.38-.428-.729-.761A1.121,1.121,0,0,1,2475.595-9374Z" transform="translate(-2457.915 9404.395)" fill="#145b70"/>
  <path id="Path_5373" data-name="Path 5373" d="M2777.481-9040a16.581,16.581,0,0,0-.206,2.376c.079.476.032.4-.127.27s-.19-.3-.095-.855S2777.481-9040,2777.481-9040Z" transform="translate(-2762.702 9075.545)" fill="#145b70"/>
  <path id="Path_5374" data-name="Path 5374" d="M2400.876-9520.146c.158.761.158,1.68,1.014,2.219s.586.713.285.808-.872-.95-1.2-1.536-.412-.872-.3-1.205S2400.876-9520.146,2400.876-9520.146Z" transform="translate(-2381.818 9548.227)" fill="#145b70"/>
  <path id="Path_5375" data-name="Path 5375" d="M2039.776-9200.826c-1.157,1.283-1.7,1.458-2.535,1.569s-.317.443.1.428a3.03,3.03,0,0,0,2.171-.824c1.141-.888,1.537-2.408,1.093-1.934A7.041,7.041,0,0,1,2039.776-9200.826Z" transform="translate(-2014.491 9234.754)" fill="#145b70"/>
  <path id="Path_5376" data-name="Path 5376" d="M2163.951-9355.621a5.94,5.94,0,0,0,1.822,2.164c.745.46.65.618-.095.491a2.022,2.022,0,0,1-1.727-1.362c-.4-.951-.4-1.759-.27-1.728S2163.951-9355.621,2163.951-9355.621Z" transform="translate(-2141.882 9386.735)" fill="#145b70"/>
  <path id="Path_5377" data-name="Path 5377" d="M2138.765-9800.931a11.183,11.183,0,0,0-2.981,2.529c-.806,1.192-.419,1.547,0,1.08a6.885,6.885,0,0,1,1.628-1.869,7.645,7.645,0,0,1,1.837-1.241c.451-.129.209-.58-.145-.709S2138.765-9800.931,2138.765-9800.931Z" transform="translate(-2114.642 9824.796)" fill="#145b70"/>
  <path id="Path_5378" data-name="Path 5378" d="M1850.917-9536.147c.645.322.967.87.741,1.435s-.677.563-.9,1.176-.371,1.048-.371.629a8.947,8.947,0,0,1,.532-1.8c.161-.5.258-.5,0-1s-.451-.887-.29-.758A1.645,1.645,0,0,1,1850.917-9536.147Z" transform="translate(-1822.363 9564.314)" fill="#145b70"/>
  <path id="Path_5379" data-name="Path 5379" d="M2000.348-9595.024c.371,1.016,1.063,1.354,1.934,1.966s1.047.854,1,1.6-.145.709-.467,0a2.353,2.353,0,0,0-1.257-1.467c-.854-.483-1.676-1.225-1.676-1.917s.1-.773.29-.4S2000.348-9595.024,2000.348-9595.024Z" transform="translate(-1976.289 9622.353)" fill="#145b70"/>
  <path id="Path_5410" data-name="Path 5410" d="M220.26-9242.79a1.465,1.465,0,0,1-1.014.238c-.729,0-.523.206-1.046.269s-.412,1.395-.555,2.393a1.54,1.54,0,0,0,1.268,1.886c.84.079,2.741-.143,3.977-.143s1.046.27,1.806.206a17.948,17.948,0,0,1,2.329-.206,3.133,3.133,0,0,0,1.537-.11c.428-.19.523-.381.349-.634s.18-.423.085-.74-.148-.264-.085-.58-.185-.571-.644-.824-.512-.18-1.194-.274a3.814,3.814,0,0,1-1.658-.655,4.78,4.78,0,0,0-1.437-.824,5.194,5.194,0,0,1-1.785-1.426c-.349-.4-.745-.634-.887-.285s-.063.887-.4,1.22A2.8,2.8,0,0,1,220.26-9242.79Z" transform="translate(-173.631 9276.971)" fill="#b7b7b7"/>
  <path id="Path_5409" data-name="Path 5409" d="M220.26-9242.79a1.465,1.465,0,0,1-1.014.238c-.729,0-.523.206-1.046.269s-.412,1.395-.555,2.393a1.54,1.54,0,0,0,1.268,1.886c.84.079,2.741-.143,3.977-.143s1.046.27,1.806.206a17.948,17.948,0,0,1,2.329-.206,3.133,3.133,0,0,0,1.537-.11c.428-.19.523-.381.349-.634s.18-.423.085-.74-.148-.264-.085-.58-.185-.571-.644-.824-.512-.18-1.194-.274a3.814,3.814,0,0,1-1.658-.655,4.78,4.78,0,0,0-1.437-.824,5.194,5.194,0,0,1-1.785-1.426c-.349-.4-.745-.634-.887-.285s-.063.887-.4,1.22A2.8,2.8,0,0,1,220.26-9242.79Z" transform="translate(-173.774 9277.113)" fill="#c4c4c4"/>
  <path id="Path_5416" data-name="Path 5416" d="M2893.144-10591.429c.006.249-.056.47-.554.65a2.227,2.227,0,0,1-.906.182c-.243,0-.334-.034-.238-.034a2.18,2.18,0,0,0,.826-.1,1.993,1.993,0,0,0,.679-.328C2893.019-10591.169,2893.144-10591.429,2893.144-10591.429Z" transform="translate(-2880.271 10602.532)" fill="#493421"/>
</svg>
