<svg xmlns="http://www.w3.org/2000/svg" width="73.83" height="101.289" viewBox="0 0 73.83 101.289">
  <g id="Group_4" data-name="Group 4" transform="translate(0 0)">
    <rect id="Rectangle_2" data-name="Rectangle 2" width="49.686" height="1.05" transform="translate(16.445 21.954)" fill="#e5f2fa"/>
    <rect id="Rectangle_3" data-name="Rectangle 3" width="50.036" height="1.05" transform="translate(23.793 28.253)" fill="#e5f2fa"/>
    <rect id="Rectangle_4" data-name="Rectangle 4" width="50.036" height="0.7" transform="translate(0 36.3)" fill="#e5f2fa"/>
    <rect id="Rectangle_5" data-name="Rectangle 5" width="49.686" height="0.7" transform="translate(10.147 45.748)" fill="#e5f2fa"/>
    <rect id="Rectangle_6" data-name="Rectangle 6" width="34.29" height="1.05" transform="translate(35.69 61.493)" fill="#e5f2fa"/>
    <path id="Path_2" data-name="Path 2" d="M934.908,185.333a3.493,3.493,0,0,0-2.927,2.8c-.536,1.979-.247,2.762-.536,3.546s-1.32,1.4-1.65,1.773.6,1.144.6,1.144a3.176,3.176,0,0,1-.247.742c-.155.278.186.464.557.742s.68.025.866.365-.711.934-.866,1.212.155.773,0,1.113-.124,1.082.216,1.3a14.812,14.812,0,0,0,3.061.371,3.593,3.593,0,0,1,2.041.959c.371.464.557.9.649,2.381s-.958,2.721-.9,3.8.619,1.3,1.052.371a53.033,53.033,0,0,1,4.855-5.906,8.495,8.495,0,0,1,2.783-1.422c.8-.278.742-4.793-.989-7.019s-6.494-5.473-6.8-6.339A6.157,6.157,0,0,0,934.908,185.333Z" transform="translate(-913.516 -182.639)" fill="#f8bdc5"/>
    <path id="Subtraction_4" data-name="Subtraction 4" d="M8.711,0c-.195,0-.4.207-.575.584A23.836,23.836,0,0,1,5.8,3.642C4.766,4.874,3.636,6.152,3.281,6.49A7.934,7.934,0,0,1,.5,7.913c-.324.112-.519.925-.5,2.071a4.891,4.891,0,0,1,.144-1.17c.087-.309.209-.5.352-.548A7.933,7.933,0,0,0,3.281,6.843C3.636,6.5,4.766,5.227,5.8,3.994A23.831,23.831,0,0,0,8.136.937c.176-.377.38-.584.575-.584.245,0,.425.334.471.871A1.782,1.782,0,0,0,9.187.955a1.81,1.81,0,0,0-.16-.71A.377.377,0,0,0,8.711,0ZM8.29,4.749h0a3.079,3.079,0,0,0,0,.363,7.334,7.334,0,0,0,.22,1.573,2.2,2.2,0,0,0,.429.808,2.677,2.677,0,0,0,.939.642,3.365,3.365,0,0,0,1.1.317,14.184,14.184,0,0,1,3.061.371.831.831,0,0,1,.3.625,1.083,1.083,0,0,0-.3-.978A4.852,4.852,0,0,0,12.6,8.214c-.623-.059-1.284-.1-1.623-.116a3.365,3.365,0,0,1-1.1-.317A2.677,2.677,0,0,1,8.94,7.14c-.383-.479-.558-.915-.649-2.381Zm5.942,5.45a1.225,1.225,0,0,0,.029.51c.008.039.015.08.022.118a1,1,0,0,0-.022-.471c-.01-.052-.02-.1-.028-.158Zm-.8,1.952h0a.3.3,0,0,0-.036.3.41.41,0,0,0,.394.209.828.828,0,0,1,.472.156l.147.108a1.8,1.8,0,0,1,.384.329l.025-.048c.134-.241-.106-.414-.409-.634l-.148-.108a.828.828,0,0,0-.472-.156.43.43,0,0,1-.358-.151Zm1.211,1.855h0c-.046.16-.072.288-.072.289a2.609,2.609,0,0,1,.624.757c.088-.135.046-.327-.123-.571a3.03,3.03,0,0,0-.429-.475Z" transform="translate(31.445 25.903) rotate(180)" fill="#dfaab1"/>
    <path id="Path_12" data-name="Path 12" d="M896.417,747a8.061,8.061,0,0,1,1.649.289,21.808,21.808,0,0,1,2.8,2.226c.495.35,2.082,1.237,2.082,1.958s-2.866,3.5-3.546,4.061-1.258.206-2.082.866-1.319,2.227-3.278,3.566a7.121,7.121,0,0,1-4.968,1.464c-1.691-.082-1.381-1.257-1.4-1.876s1.134-1.711,1.4-2.7,1.464-2.226,1.69-2.845.041-.33,0-1.691a2.781,2.781,0,0,1,.618-2.206c.371-.515,3.793-1.9,4.247-2.433A2.534,2.534,0,0,1,896.417,747Z" transform="translate(-866.306 -674.833)" fill="#000b55"/>
    <path id="Path_1" data-name="Path 1" d="M776.93,166.823c.928.495,1.917.68,2.227,2.1a6.381,6.381,0,0,0,.866,2.659c.557.866.124,1.237,0,2.536s.433,2.288.68,1.3,2.845-2.6,4.329-.495a11.039,11.039,0,0,1,1.732,5.875c.041,1.2-.206,1.278.99,1.4a2.984,2.984,0,0,1,2.1,1.567c.124.289,1.443.144,2.639.721s3.34,1.67,4,1.876a24.307,24.307,0,0,1,4.535,1.113c1.443.7,10.72-3.628,3.958-9.73s-7.092-4.205-9.277-7.257-1.814-4.865-6.1-6.02-6.721-1.072-8.906-.577S776.93,166.823,776.93,166.823Z" transform="translate(-757.085 -163.551)" fill="#6e464e"/>
    <path id="Path_11" data-name="Path 11" d="M940.677,731.714a15.773,15.773,0,0,0,1.908,1.184c.724.3.919.442.636.937a3.646,3.646,0,0,1-1.343,1.52c-.9.636-3.057.937-3.534,1.361s-.724.124-.724-.53a2.031,2.031,0,0,0-.3-1.361c-.265-.353.866-.566,1.484-1.113S940.677,731.714,940.677,731.714Z" transform="translate(-912.836 -661.438)" fill="#c7d3fa"/>
    <path id="Path_4" data-name="Path 4" d="M1019.138,320.409c-.835-.309-1.794.247-2.907,1.577s-1.577,4.236-1.763,5.844a15.03,15.03,0,0,1-1.546,4.082c-.4.99,0,1.361-.4,1.577s-1.917-.588-2.6-1.144-2.165-1.392-2.288-1.732-.365-1.225-1.058-1.5a3.139,3.139,0,0,1-1.435-1.559,13.468,13.468,0,0,0-2.053-2.969c-.544-.346-.915.124-.569.915s.989,1.385,1.163,1.806-.495,0-.841-.569a9.21,9.21,0,0,0-1.732-2.029c-.346-.173-1.336.025-.569,1.039s1.311,1.534,1.385,1.93-.767-.544-1.163-.94-.891-.94-1.262-1.237-1.262.173-.322,1.237,2.053,1.979,2.227,2.375-.173.495-.4.346a18.559,18.559,0,0,0-2.276-1.336c-.594-.223-.742.4.124.99a30.866,30.866,0,0,1,2.845,1.831,8.124,8.124,0,0,0,2.152,1.756c.693.272.866.074,1.286.544s4.577,4.131,5.294,5a8.144,8.144,0,0,0,3.315,1.855c.792.223,2.091-1.657,2.48-2.325s1.082-1.534,1.206-1.831.173-6.185.495-8.114S1019.138,320.409,1019.138,320.409Z" transform="translate(-996.169 -300.934)" fill="#f8bdc5"/>
    <path id="Subtraction_1" data-name="Subtraction 1" d="M5.251,0A1.155,1.155,0,0,0,4.6.277a4.54,4.54,0,0,0-.682.658A10.167,10.167,0,0,0,2.907,2.344c-.192.329-.458.707-.693,1.04a6.288,6.288,0,0,0-.513.791c-.05.119-.088,1.145-.136,2.444-.07,1.906-.167,4.516-.359,5.67C.887,14.2.009,19.655,0,19.71c.039.014.078.027.117.037a1.556,1.556,0,0,1,0-.182,12.953,12.953,0,0,1,.77-2.594c.29-.817.618-1.744.865-2.6a8.241,8.241,0,0,0,.406-2.285c-.04-2.026-.081-6.193-.082-6.369h0c.5-1.354,1.494-3.781,2.6-4.824A.85.85,0,0,1,5.275.668a2.75,2.75,0,0,1,1.186.363,10.19,10.19,0,0,1,1.384.89c.944.7,1.88,1.551,2.563,2.171l0,0,.216.2c.682.617,1.478,1.281,2.239,1.871a11.117,11.117,0,0,0,1.389.974.636.636,0,0,0,.163.048A1.023,1.023,0,0,1,14,6.871c-.164-.183-.908-.862-1.769-1.649C10.851,3.966,9.14,2.4,8.7,1.874A5.5,5.5,0,0,0,7.072.7,10.053,10.053,0,0,0,5.387.018.5.5,0,0,0,5.251,0Z" transform="translate(22.969 39.139) rotate(180)" fill="#dfaab1"/>
    <path id="Path_8" data-name="Path 8" d="M970.1,596.158a28.633,28.633,0,0,0-4.428.2c-.322.124,2.325,1.039,3.81,2.721s2.993,4.156,4.255,5.492,1.558.94,1.064,1.484A41.293,41.293,0,0,1,971.852,609c-.668.52-.915-.148-2.375-1.286s-8.287-5.245-10.167-6.556S956.045,599.1,955.2,597s.717-3.389,2.028-4.8a31.993,31.993,0,0,1,6.506-4.354c.94-.4,3.216,4.725,4.107,5.715s2.4,2.474,2.251,2.6" transform="translate(-946.701 -535.346)" fill="#f8bdc5"/>
    <path id="Subtraction_3" data-name="Subtraction 3" d="M.425,0h0l-.2.216L.191.255C.06.4-.006.471,0,.534S.079.648.223.753A7.086,7.086,0,0,1,1.291,1.7a28.683,28.683,0,0,1,2.1,2.69c.7.974,1.434,1.981,2.157,2.8A11.523,11.523,0,0,0,8.713,9.458c.405.219.673.363.669.428,0,.011-.009.02-.027.027a24.536,24.536,0,0,1-3.85.2c-.2,0-.393,0-.578,0a.03.03,0,0,0-.01.022,8.412,8.412,0,0,0,1.39,1.639c.3.32.614.651.872.936A15.96,15.96,0,0,1,8.5,14.834c.459.812.98,1.732,1.453,2.427.542.8.943,1.183,1.227,1.183a.282.282,0,0,0,.11-.022l.1-.045A33.6,33.6,0,0,1,9.6,15.444a17.34,17.34,0,0,0-1.431-2.309c-.279-.31-.618-.669-.946-1.016a9.142,9.142,0,0,1-1.511-1.781.033.033,0,0,1,.011-.024c.2,0,.412,0,.628,0a26.654,26.654,0,0,0,4.183-.219c.019-.007.028-.017.029-.029,0-.071-.286-.228-.727-.465A12.519,12.519,0,0,1,6.4,7.142C5.609,6.251,4.818,5.157,4.052,4.1A31.159,31.159,0,0,0,1.773,1.176,7.7,7.7,0,0,0,.614.148,1.882,1.882,0,0,1,.426,0Z" transform="translate(28.322 70.923) rotate(180)" fill="#dfaab1"/>
    <path id="Path_10" data-name="Path 10" d="M623.357,853.833a7.511,7.511,0,0,0,2.227.227c1.257.083,2.8,1.381,3.133,1.484a9.91,9.91,0,0,1,1.443.124c.742.206,1.01.886.289,2.1s-2.907,3.876-3.9,5.566-3.36,5.3-4.886,5.978-2.412.495-2.989-.206-.124-1.608.33-2.432.928-1.031.68-1.9.165-2.226.165-3.031.474-2.391.35-2.8a2.708,2.708,0,0,1-.268-1.175c.062-.412,2.082-1.361,2.659-2.433S623.357,853.833,623.357,853.833Z" transform="translate(-560.921 -768.452)" fill="#000b55"/>
    <path id="Path_9" data-name="Path 9" d="M679.837,842.167a4.006,4.006,0,0,0,1.4.886c.309.1.124.8-.124,1.587a10.975,10.975,0,0,1-2.495,2.948c-1.01.99-1.216.886-1.216.722s-.453-1.67-.619-2.206-.309-.639-.247-.742,1.361-1.526,1.835-1.979S679.837,842.167,679.837,842.167Z" transform="translate(-618.637 -758.228)" fill="#c7d3fa"/>
    <path id="Path_7" data-name="Path 7" d="M694.256,668.147c-.128.594.614,2.548,1.7,4.3s3.909,3.414,7.273,6.382,5.962,9.846,6.234,10.464.272.445-.2,1.113A37.865,37.865,0,0,1,706,693.034c-.223.272-1.484-2.7-2.771-4.379s-5.2-5.913-6.457-7.248a12.517,12.517,0,0,0-4.032-2.573,6.374,6.374,0,0,1-2.894-2.622,32.928,32.928,0,0,0-3.315-3.76,2.4,2.4,0,0,1-.841-1.237c-.3-.841-1.435-2.969.618-3.34s3.859.4,5.244.272A16.773,16.773,0,0,1,694.256,668.147Z" transform="translate(-647.948 -605.405)" fill="#f8bdc5"/>
    <path id="Subtraction_2" data-name="Subtraction 2" d="M.575,0A.044.044,0,0,0,.541.017,4.831,4.831,0,0,1,0,.45c.19.264.469.772.792,1.36A25.6,25.6,0,0,0,2.654,4.859c1.427,1.866,5.773,6.545,6.773,7.6a11.035,11.035,0,0,0,3.561,2.371c.218.106.443.215.668.327a6.706,6.706,0,0,1,3.036,2.751,33.577,33.577,0,0,0,3.477,3.944c.05.05.1.1.151.141a2.342,2.342,0,0,1,.732,1.156c.036.1.083.221.138.358.072.182.154.387.229.6a4.242,4.242,0,0,0-.436-1.936c-.052-.131-.1-.244-.132-.342a2.233,2.233,0,0,0-.7-1.1c-.047-.043-.1-.087-.144-.135a31.935,31.935,0,0,1-3.315-3.76,7.323,7.323,0,0,0-1.206-1.506A7.015,7.015,0,0,0,13.8,14.217c-.215-.107-.429-.211-.637-.312a10.521,10.521,0,0,1-3.4-2.261c-.953-1.009-5.1-5.469-6.457-7.248A24.393,24.393,0,0,1,1.536,1.491C1.079.658.718,0,.575,0Z" transform="translate(58.594 87.646) rotate(180)" fill="#dfaab1"/>
    <path id="Path_108" data-name="Path 108" d="M956.53,314.244s-.619-.212-2.456,1.891-2.916,3.446-3.2,3.8-.389.813-.23.9a12.359,12.359,0,0,0,2.88-2.686C954.233,317.177,956.53,314.244,956.53,314.244Z" transform="translate(-927.664 -295.599)" fill="#dfaab1"/>
    <path id="Path_6" data-name="Path 6" d="M835.369,565.578c.223,1.064.668,2.746.841,3.933s1.831,3.909,2.474,5,.99,1.484.47,1.954a6.4,6.4,0,0,1-2.944,1.212c-1.187.173-3.513-.693-4.181.346s-.173,2.028-.544,2.3-1.484-2.078-2.573-2.87a37.446,37.446,0,0,1-3.686-3.785c-.717-.767-1.237-.569-2.4-.149s-2.87.074-3.76.792-1.41,1.064-1.88,1.039-1.979-1.187-3.364-2.622a16.89,16.89,0,0,1-3.661-4.75c-.94-2.029-.569-1.979-.247-2.177s1.608-.717,2.35-1.039,3.711-1.336,4.552-1.608,1.262.074,1.583-.371,2.7,1.756,4.032,2.5,7.669.668,9.969.3S835.369,565.578,835.369,565.578Z" transform="translate(-793.098 -513.35)" fill="#0081c8"/>
    <path id="Subtraction_5" data-name="Subtraction 5" d="M.231,0h0A.111.111,0,0,0,.164.022C.006.138.005.391,0,.711c0,.1,0,.2,0,.306a7.287,7.287,0,0,0,1.353,1.59,28.18,28.18,0,0,1,3.17,3.316c.264.306.493.571.66.756a1.4,1.4,0,0,0,1.084.569,2.642,2.642,0,0,0,.742-.134,1.724,1.724,0,0,1-.585-.438c-.161-.172-.381-.419-.637-.7A26.635,26.635,0,0,0,2.737,2.891,8.333,8.333,0,0,1,1.2,1.088C.791.5.435,0,.231,0ZM14.416,4.993h0a1.21,1.21,0,0,0-.485.115,6.647,6.647,0,0,1,1.414.977,21.94,21.94,0,0,1,1.885,1.8l.335.358,0,0a16.476,16.476,0,0,1,3.449,4.733,7.734,7.734,0,0,1,.584,1.641c.058-.029.1-.055.137-.075s.058-.034.087-.049c.292-.157.522-.281-.334-2.128A15.569,15.569,0,0,0,18.151,7.95l-.324-.334A19.925,19.925,0,0,0,15.8,5.777a3.542,3.542,0,0,0-1.339-.782ZM10.253,6.581c-.136.01-.246.02-.345.029.131-.009.244-.019.345-.029Z" transform="translate(38.496 66.995) rotate(180)" fill="#005482"/>
    <path id="Path_3" data-name="Path 3" d="M854.406,313.434c-2.5-.062-4.638-.237-5.6.876s-1.175,4.638-1.051,6.37,1.917,2.288,3.742,2.288,3.711-2.041,4.02-2.567.4.309.526,1.917-.959,4.948-.526,6.277.835,1.237.309,1.515a3.282,3.282,0,0,0-1.67,2.072,4.624,4.624,0,0,0,.649,3.061c.34.588,2.01.99,2.6,1.02s1.391,1.144,1.67,1.546,2.5,3.371,3.092,5.752.835,1.824-.742,2.381A20.43,20.43,0,0,1,853.447,347c-3.618-.216-7.236-2.6-7.947-3.618s-2.938-7.978-3.618-10.761a59.664,59.664,0,0,1-1.794-8.628c-.186-2.536-.649-4.824-.433-6.741s2.165-4.329,2.752-4.855,1.113-.278,1.206.371-.433,4.3-.309,4.638,2.443-3.061,3.432-4.113,1.33-1.7,2.567-1.917a5.26,5.26,0,0,1,3.711.371A3.608,3.608,0,0,1,854.406,313.434Z" transform="translate(-820.027 -292.949)" fill="#eb6576"/>
    <path id="Path_98" data-name="Path 98" d="M900.589,322.376c-2.477,1.361-3.1,1.392-3.9,4.546a4.729,4.729,0,0,0,2.567,5.659c1.33.557,5.628-2.938,5.628-2.938a12.478,12.478,0,0,1-.35,2.268c-.309,1.237-3.278,3.133-4.577,3.154s-3.814-2.618-4.267-3.67a6.272,6.272,0,0,1-.577-3.979,12.463,12.463,0,0,1,2.02-4.391,2.329,2.329,0,0,1,2.226-1.258,6.957,6.957,0,0,1,1.794.392Z" transform="translate(-869.145 -302.19)" fill="#dfaab1"/>
    <path id="Path_5" data-name="Path 5" d="M796.908,324.684a28.6,28.6,0,0,1,7.149,1.93c2.8,1.138,6.086,2,7.941,3.364s2.177,2.8,1.064,5.294-5.715,7.248-6.333,7.867-.816,1.237-1.459,1.509-.469.437-.94.717-.94.173-.718.816.643.965.3,1.806-.915.816-1.385.99-3.562-.247-4.4-2.128.94-4.725,1.583-4.9a4.042,4.042,0,0,1,2.622-.173c1.138.371,1.707.2,2-.52s1.484-2.3,2.028-3.414a8.124,8.124,0,0,0,1.089-3.785c-.049-1.385-1.212-.866-2.375-1.113s-3.191-.767-3.562-.816-.643-.4-.742.322-1.855,3.364-3.538,3.834-5.418-2-5.764-4.3a9.511,9.511,0,0,1,2.029-6.432C794.557,324.239,796.908,324.684,796.908,324.684Z" transform="translate(-765.151 -304.689)" fill="#f8bdc5"/>
    <path id="Path_101" data-name="Path 101" d="M959.213,253.239s1.756-.94,2.573,1.682-.841,2.523-1.534,2.177,1.608.223,1.336-1.113-.346-1.954-1.213-2.4S959.213,253.239,959.213,253.239Z" transform="translate(-934.21 -242.002)" fill="#dfaab1"/>
    <ellipse id="Ellipse_1" data-name="Ellipse 1" cx="1.05" cy="1.225" rx="1.05" ry="1.225" transform="translate(51.786 31.052)" fill="#0081c8"/>
    <ellipse id="Ellipse_2" data-name="Ellipse 2" cx="0.525" cy="0.7" rx="0.525" ry="0.7" transform="translate(44.438 40.849)" fill="#0081c8"/>
    <ellipse id="Ellipse_3" data-name="Ellipse 3" cx="0.525" cy="0.525" rx="0.525" ry="0.525" transform="translate(59.484 54.845)" fill="#0081c8"/>
    <ellipse id="Ellipse_4" data-name="Ellipse 4" cx="0.525" cy="0.525" rx="0.525" ry="0.525" transform="translate(11.547 24.754)" fill="#0081c8"/>
    <ellipse id="Ellipse_5" data-name="Ellipse 5" cx="0.7" cy="0.525" rx="0.7" ry="0.525" transform="translate(10.147 50.296)" fill="#0081c8"/>
  </g>
</svg>
