<svg xmlns="http://www.w3.org/2000/svg" width="44" height="51.037" viewBox="0 0 44 51.037">
  <g id="Layer_1" data-name="Layer 1" transform="translate(0 0)">
    <path id="Path_7023" data-name="Path 7023" d="M44,51.032c-.012-.215-.035-.428-.035-.643q-.006-13.8.007-27.6a.83.83,0,0,0-.587-.916,12.557,12.557,0,0,0-11.131.359,10.615,10.615,0,0,0-3.814,3.283l-.464.639a9.752,9.752,0,0,0-6.219-1.7,9.379,9.379,0,0,0-5.91,2.464A6.2,6.2,0,0,1,14.3,24.437a22.44,22.44,0,0,1-1.4-6.488c-.152-2.014-.152-4.04-.211-6.061a5.069,5.069,0,0,1,.107-.749A4.385,4.385,0,0,0,16.167,13.3a14,14,0,0,0,3.261-.067,9.4,9.4,0,0,0,5.725-2.84,4.978,4.978,0,0,0,1.6-3.98,6.014,6.014,0,0,0-1.38-3.14A7.9,7.9,0,0,0,20.277.153a11.892,11.892,0,0,0-4.6.152A17.192,17.192,0,0,0,9.209,3.116a4,4,0,0,0-1.28,1.558A83.2,83.2,0,0,0,3.96,15.063,96.909,96.909,0,0,0,.714,27.452a30.809,30.809,0,0,0-.667,7.762,7.331,7.331,0,0,0,2.4,5.078,23.664,23.664,0,0,0,13.089,6.1,51.182,51.182,0,0,0,8.032.58A17.468,17.468,0,0,0,34.051,43.33c.406-.311.761-.689,1.127-1.025.137.711.257,1.5.444,2.274a8.1,8.1,0,0,0,7,6.363,1.613,1.613,0,0,1,.277.091H44Z" transform="translate(0 0.003)" fill="#19a617"/>
  </g>
</svg>
