<svg xmlns="http://www.w3.org/2000/svg" width="54.285" height="27.354" viewBox="0 0 54.285 27.354">
  <g id="Group_12" data-name="Group 12" transform="translate(4.538 -5.747) rotate(8)">
    <path id="Path_119" data-name="Path 119" d="M.028,2.352c-.091.132.069.3.117.823A4.957,4.957,0,0,0,.532,4.537a7.986,7.986,0,0,1,.293,1.94c-.038.246.009.218.1.189a5.263,5.263,0,0,1,1.135-.492,1.673,1.673,0,0,1,1.211.186,3.879,3.879,0,0,1,.946.788c.221.2.561.542.8.555a1.238,1.238,0,0,0,.637-.284c.139-.088.132-.145.227-.24s.315.151.5.114.208-.309.12-.416.069-.095.259-.069.24-.126.277-.372.044-.366.132-.4.423-.126.473-.227a4.568,4.568,0,0,0,0-.845c0-.309-.044-.725.107-.921a6.832,6.832,0,0,0,.631-.725,3.706,3.706,0,0,0,.36-1.325,2.342,2.342,0,0,0-.239-.854,3.29,3.29,0,0,0-.493-.8A.831.831,0,0,0,6.777.223C6.291.576,6.348,1.9,5.83,2.046S3.919.967,3.074,1.093a9.428,9.428,0,0,0-2.3.978C.482,2.2.028,2.352.028,2.352Z" transform="translate(41.337 3.454)" fill="#7f5139"/>
    <path id="Path_115" data-name="Path 115" d="M0,.108A1.769,1.769,0,0,1,1.022,1.82a5.05,5.05,0,0,1-.1,1.528c-.085.312.339-.216.491-.85A4.476,4.476,0,0,0,1.2.6,1.013,1.013,0,0,0,.728.051,1.049,1.049,0,0,0,0,.108Z" transform="translate(48.691 3.475)" fill="#7a4f39"/>
    <path id="Path_111" data-name="Path 111" d="M.054,5.956c.216-.173.259-.173.649,0A1.767,1.767,0,0,0,2.173,5.6,3.274,3.274,0,0,1,3.8,5.08a1.278,1.278,0,0,1,1.092.876c.195.519.195.7.368.595a7.382,7.382,0,0,0,.854-.876.91.91,0,0,1,.584-.335c.249-.065.065-.562.378-.843a.486.486,0,0,0,.162-.616c-.032-.13.368-.281.606-.216s.411.346.627.487.173-.054.292-.13.205-.119.162-.205a.321.321,0,0,1-.043-.195c0-.086.141-.119,0-.13s-.292.011-.249-.119.141-.184.065-.281-.151-.119-.151-.238.011-.087-.076-.162a.38.38,0,0,1-.151-.238c-.022-.108-.054-.119-.151-.141a.275.275,0,0,1-.184-.205.635.635,0,0,0-.238-.3.82.82,0,0,1-.227-.314c-.032-.065-.13-.086-.281-.162a.576.576,0,0,1-.292-.314C6.909.906,6.725.841,6.574.766S6.466.55,6.4.474,6.369.5,6.109.409A3.02,3.02,0,0,0,5.59.279C5.374.236,5.428.02,5.179.128a.372.372,0,0,1-.411,0A.432.432,0,0,0,4.455.074.757.757,0,0,1,4.044.02a.572.572,0,0,0-.411.054c-.119.065-.27-.065-.378.054s-.378.411-.5.422A.287.287,0,0,0,2.53.668C2.5.723,2.5.69,2.357.766s-.162.227-.26.314-.249.076-.324.184-.011.076-.1.227-.173.108-.3.26a4.456,4.456,0,0,0-.476.7c-.087.184-.086.076-.292.238a1.026,1.026,0,0,0-.389.551A5.124,5.124,0,0,0,.27,4.15a1.689,1.689,0,0,1,0,.411c0,.26.054.573-.054.714A1.3,1.3,0,0,0,0,5.8.224.224,0,0,0,.054,5.956Z" transform="translate(41.296 0)" fill="#343027"/>
    <path id="Path_112" data-name="Path 112" d="M.916.021C.732.021.526-.1.57.227S.375.529.224.681s-.324.368-.151.443.281-.119.378.119.022.27.205.281.119-.238.184-.4S1.024.886.916.789.829.67,1.056.594s.238-.4.119-.465A1.625,1.625,0,0,0,.916.021Z" transform="translate(44.425 5.578)" fill="#430b00"/>
    <path id="Path_113" data-name="Path 113" d="M.558.466a1.28,1.28,0,0,0-.432.919c.022.378.378.638.551.778s0,.162-.119.076S.082,2.034.017,1.623A1.523,1.523,0,0,1,.363.4C.655.088.742.034.882,0S.558.466.558.466Z" transform="translate(44.004 5.403)" fill="#430b00"/>
    <path id="Path_114" data-name="Path 114" d="M.362.058A.566.566,0,0,0,0,.569a.521.521,0,0,0,.36.605c.293.142.378-.047.208-.132S.2.966.182.664.173.314.362.172.447-.008.419,0,.362.058.362.058Z" transform="translate(44.223 6.013)" fill="#430b00"/>
    <path id="Path_116" data-name="Path 116" d="M1.6,0A2.845,2.845,0,0,1,.58,1.047,1.167,1.167,0,0,0,0,1.438s.814-.29,1.179-.391S2.309.662,2.845,1.23A6.654,6.654,0,0,0,4.239,2.4c.265.132.738-.252.858-.391s-.41.17-.605.259S3.482,1.558,3.255,1.3A3.748,3.748,0,0,0,2.113.687c-.322-.139-.341-.2-.391-.3A3.174,3.174,0,0,1,1.6,0Z" transform="translate(41.983 8.824)" fill="#493421"/>
    <path id="Path_117" data-name="Path 117" d="M0,.152a4.292,4.292,0,0,1,.549.933,1.743,1.743,0,0,1,.139.53A1.632,1.632,0,0,0,.58.846,3.11,3.11,0,0,0,0,.007,1.051,1.051,0,0,1,0,.152Z" transform="translate(41.365 6.603)" fill="#493421"/>
    <path id="Path_118" data-name="Path 118" d="M.045.382a1.626,1.626,0,0,1,.82.9c.284.618.095-.139-.17-.593A1.927,1.927,0,0,0,.045.01C-.056-.072.045.382.045.382Z" transform="translate(41.175 5.887)" fill="#493421"/>
    <path id="Path_122" data-name="Path 122" d="M.842.265C.791.341-.012.612,0,.864S.756,3.716.857,4.3s.341,1.571.454,2.119A5.1,5.1,0,0,1,1.449,7.6c-.006.309.006.788.126.883s.025.341.069.536-.025.24.17.492.473.378.555-.164a5.294,5.294,0,0,0,.057-2.176,13.212,13.212,0,0,0-.618-2.813A21.114,21.114,0,0,1,1.215.048C1.171-.135.842.265.842.265Z" transform="matrix(0.999, -0.035, 0.035, 0.999, 37.431, 14.897)" fill="#683f29"/>
    <path id="Path_120" data-name="Path 120" d="M1.183.112C1.057-.02.792-.09.918.219S.981.787.8.882.337,1.2.173.831-.009.4,0,.579a3,3,0,0,0,.322.9,6.456,6.456,0,0,0,.479.8c.088.132.151-.473.284-.8A2.177,2.177,0,0,0,1.3.642c0-.271-.183-.233-.164-.334A1.683,1.683,0,0,1,1.183.112Z" transform="translate(37.148 8.371)" fill="#493421"/>
    <path id="Path_128" data-name="Path 128" d="M4.217.2c-.057.208-.558.568-.851.7a2.626,2.626,0,0,0-.776.606,1.4,1.4,0,0,0-.274.728,3.173,3.173,0,0,1-.18.946.638.638,0,0,0,.076.6c.076.095.246-.009.378.095s.274.265.4.35.378-.076.558.161.066.407-.047.568-.634.189-.965.18-.549.009-.8,0A2.692,2.692,0,0,1,.177,4.522C-.136,4.116-.022,3.4.423,2.63s.208-1.069,1.06-1.372,1.23-.5,1.457-.851S2.911,0,3.545,0,4.217.2,4.217.2Z" transform="translate(2.448 26.762)" fill="#c4c4c4"/>
    <path id="Path_126" data-name="Path 126" d="M12.559,0a10.447,10.447,0,0,1-1.867,1.539A7.878,7.878,0,0,1,8.371,2.573c-.959.189-1.552.177-2.384.378S2.883,4.4,2.2,4.617a15.624,15.624,0,0,0-1.955.605c-.3.189-.252.366-.227.845A3.072,3.072,0,0,0,.8,7.72C1.13,7.973,2.215,7.4,3,7.216A25.525,25.525,0,0,0,7.513,6.194a7.379,7.379,0,0,1,3.028-.58,3.906,3.906,0,0,0,2.182-.744A24.684,24.684,0,0,1,15.4,3.393a1.883,1.883,0,0,0,.593-.959A6.554,6.554,0,0,0,14.8,1.022,8.3,8.3,0,0,0,12.559,0Z" transform="translate(4.913 19.023)" fill="#683f29"/>
    <path id="Path_129" data-name="Path 129" d="M4.913,0a.545.545,0,0,1-.579.145A.71.71,0,0,0,3.7.479C3.555.712,2.932.434,2.175.557S.516.668.116,1.592s.378,2.07.245,3.172A3.459,3.459,0,0,0,.739,7.391,2.172,2.172,0,0,0,2.8,8,8.544,8.544,0,0,0,4.49,7.869c.2-.145.434-.423.067-.657s-.646-.167-.924-.334-.545-.223-.479-.579.568-.813.545-1.347.1-.289.256-.59.122-.356.323-.568a3.046,3.046,0,0,1,.39-.39c.1-.067.1-.067.367,0s.211-.134.4-.2a.77.77,0,0,0,.39-.412c.045-.122-.022-.089,0-.278a5.742,5.742,0,0,0-.39-1.391C5.269.7,4.913,0,4.913,0Z" transform="translate(0.151 24.423)" fill="#b7b7b7"/>
    <path id="Path_127" data-name="Path 127" d="M4.913,0a.545.545,0,0,1-.579.145A.71.71,0,0,0,3.7.479C3.555.712,2.932.434,2.175.557S.516.668.116,1.592s.378,2.07.245,3.172A3.459,3.459,0,0,0,.739,7.391,2.172,2.172,0,0,0,2.8,8,8.544,8.544,0,0,0,4.49,7.869c.2-.145.434-.423.067-.657s-.646-.167-.924-.334-.545-.223-.479-.579.568-.813.545-1.347.1-.289.256-.59.122-.356.323-.568a3.046,3.046,0,0,1,.39-.39c.1-.067.1-.067.367,0s.211-.134.4-.2a.77.77,0,0,0,.39-.412c.045-.122-.022-.089,0-.278a5.742,5.742,0,0,0-.39-1.391C5.269.7,4.913,0,4.913,0Z" transform="translate(0 24.575)" fill="#c4c4c4"/>
    <path id="Path_125" data-name="Path 125" d="M12.559,0a10.447,10.447,0,0,1-1.867,1.539A7.878,7.878,0,0,1,8.371,2.573c-.959.189-1.552.177-2.384.378S2.883,4.4,2.2,4.617a15.624,15.624,0,0,0-1.955.605c-.3.189-.252.366-.227.845A3.072,3.072,0,0,0,.8,7.72C1.13,7.973,2.215,7.4,3,7.216A25.525,25.525,0,0,0,7.513,6.194a7.379,7.379,0,0,1,3.028-.58,3.906,3.906,0,0,0,2.182-.744A24.684,24.684,0,0,1,15.4,3.393a1.883,1.883,0,0,0,.593-.959A6.554,6.554,0,0,0,14.8,1.022,8.3,8.3,0,0,0,12.559,0Z" transform="translate(4.913 19.401)" fill="#7f5139"/>
    <path id="Path_124" data-name="Path 124" d="M9.877.021c-.341.05-.265-.114-.82.063S8.742.538,8.3.324a1.233,1.233,0,0,0-1.4,0,7.346,7.346,0,0,0-1.589,1.06c-.429.341-1.539,1.135-1.8,1.4s-.416.87-.82,1.451S.706,6.392.429,6.682-.114,7.136.05,7.3s1.337,1.539,1.7,1.9a24.012,24.012,0,0,1,1.753,1.829,18.675,18.675,0,0,1,1.107,1.892c.205.432.519.032.724,0s.151.076.551-.184a7.688,7.688,0,0,0,1.925-1.535c.551-.714.757-.811,1.124-.811a3.184,3.184,0,0,0,1.676-.541,2.968,2.968,0,0,0,.9-1.665c.065-.433.13-.422.368-.573s.292-.335.422-.422.216.26.66.314a.486.486,0,0,0,.551-.627c-.065-.324-1.86-2.822-2-3.244S10.55,1.7,10.3,1.216A6.706,6.706,0,0,1,9.877.021Z" transform="translate(17.22 12.114)" fill="#20728a"/>
    <path id="Path_333" data-name="Path 333" d="M.114.365A3.207,3.207,0,0,0,0,1.135,11.223,11.223,0,0,0,.157,2.367c.022.141.053.212.291.32a8.842,8.842,0,0,0,1.677.048,2.018,2.018,0,0,0,.724,0,.966.966,0,0,1,.789.054,1.689,1.689,0,0,0,.714.216c.195,0,.227-.281.13-.357s.141-.108.216,0A1.424,1.424,0,0,0,5.33,2.9a.44.44,0,0,0,.385-.05c.038-.044.164.038.265.05s.177-.031.158-.167S5.5,2.277,5.33,2.119a1.979,1.979,0,0,0-.662-.347c-.12-.025-1.034-.006-1.243-.038a4.656,4.656,0,0,1-1.173-.221c-.259-.145-.2-.4-.214-.6a5.71,5.71,0,0,1,.12-.788A17.09,17.09,0,0,0,.114,0Z" transform="translate(39.261 22.954) rotate(-9)" fill="#683f29"/>
    <path id="Path_334" data-name="Path 334" d="M0,.365c0,.3.022,1.862.043,2s.011.173.249.281a9.442,9.442,0,0,0,1.719.087,2.018,2.018,0,0,0,.724,0,.966.966,0,0,1,.789.054,1.689,1.689,0,0,0,.714.216c.195,0,.227-.281.13-.357s.141-.108.216,0a1.424,1.424,0,0,0,.632.253.44.44,0,0,0,.385-.05c.038-.044.164.038.265.05s.177-.031.158-.167-.637-.458-.807-.615a1.979,1.979,0,0,0-.662-.347c-.12-.025-1.034-.006-1.243-.038a4.656,4.656,0,0,1-1.173-.221c-.259-.145-.2-.4-.214-.6a5.71,5.71,0,0,1,.12-.788A17.09,17.09,0,0,0,0,0Z" transform="translate(40.019 23.14) rotate(-9)" fill="#7f5139"/>
    <path id="Path_121" data-name="Path 121" d="M2.707,0A2.747,2.747,0,0,0,.361,1.048,2.049,2.049,0,0,0,.115,2.88c.177.5.669,1.009.738,1.274a3.127,3.127,0,0,1,.126.877C1,5.516.967,8.556.967,8.916a28.552,28.552,0,0,0,.694,3.564c.227.725.6,3.1.7,3.768a20.675,20.675,0,0,1,.306,2.185c-.032.278,2.629-.4,2.522-.481a.873.873,0,0,1-.216-.36,1.382,1.382,0,0,0-.273-.42,3.8,3.8,0,0,1-.3-1.391c.006-.435-.216-5.137-.21-5.648a7.856,7.856,0,0,0-.3-2.3,3.294,3.294,0,0,1-.151-1.583c.038-.46.044-1.476.063-1.646s.486-.271.58-.524a6.156,6.156,0,0,0,.132-1.634A2.581,2.581,0,0,0,4.135.824,1.528,1.528,0,0,0,2.707,0Z" transform="matrix(0.999, -0.035, 0.035, 0.999, 37.025, 6.609)" fill="#7f5139"/>
    <path id="Path_123" data-name="Path 123" d="M14.652.608c.065.289.093.634.136.932A4.479,4.479,0,0,0,15.1,2.576,9.44,9.44,0,0,1,15.469,4.2a1.808,1.808,0,0,1,0,.7c-.019.076-.114.085-.114.151a5.3,5.3,0,0,1-.151.8c-.095.36-.265.241-.284.658a4.628,4.628,0,0,1-.27,1.462,1.513,1.513,0,0,1-.327.5,4.062,4.062,0,0,1-.1-.636c-.038-.27.027-1.343.046-1.745s-.029-.723.2-.9.2-.329.25-1.148a3.833,3.833,0,0,0-.359-2.105A2.356,2.356,0,0,0,11.926,1.5a2.576,2.576,0,0,0-1.268,2.115c.147.5.809,1.159.9,1.755s0,2.936,0,3.551.1,1,.019,1.085a9.564,9.564,0,0,1-1,.629c-.1.043-.416-.019-.6.095a16.11,16.11,0,0,0-1.14,1.235c-.227.251-.681.009-1.083.388a2.992,2.992,0,0,1-1.116.7c-.44.17-.87-.024-.937.161s-.024.563-.464.762-.516-.1-.818.2a.707.707,0,0,1-.823.2c-.2-.095-.483-.52-.8-.639a3.405,3.405,0,0,1-1.239-1.76C1.353,11.233.984,10.368.8,9.89S.284,8.262.156,7.752s-.237-.79-.076-.88S.3,6.664.431,6.38a.556.556,0,0,1,.785-.341c.383.189.615.26.927,0S2.7,5.481,3.382,4.932A27.367,27.367,0,0,1,6.207,2.9a21.163,21.163,0,0,0,2.256-1.15A8.287,8.287,0,0,1,10.937.7,11.083,11.083,0,0,0,12.475.112a1.047,1.047,0,0,1,.951,0,6.917,6.917,0,0,1,1.008.336A.907.907,0,0,1,14.652.608Z" transform="translate(26.712 5.254)" fill="#c4c4c4"/>
  </g>
</svg>
