<svg xmlns="http://www.w3.org/2000/svg" width="53.275" height="42.15" viewBox="0 0 53.275 42.15">
  <g id="Group_3779" data-name="Group 3779" transform="translate(7783.661 6971.273)">
    <path id="Path_5284" data-name="Path 5284" d="M-5626.054-4560.491a4.232,4.232,0,0,1,3.346-.58,18.427,18.427,0,0,1,3.514.965,6.219,6.219,0,0,0,2.761.221c1,0,5,1,6.306,1.217a15.617,15.617,0,0,0,2.655.5c1.106.027,1.022.195,1.08.606s-.084,1.106,0,1.328-.168.549-.363.633a63.689,63.689,0,0,1-6.833-.633c-1.434-.274-4.222-1.16-5.744-1.491s-2.408-.912-4.125-.943-2.876.358-2.93.195A17.593,17.593,0,0,1-5626.054-4560.491Z" transform="translate(-2130.777 -2377.892)" fill="#683f29"/>
    <path id="Path_5317" data-name="Path 5317" d="M-4197-4690.067c.274-.354.642-.1,1.062.084s.938-.19,1.354-.58a2.611,2.611,0,0,0,.885-1.159,13.511,13.511,0,0,0,.655-1.677,4.917,4.917,0,0,0,.5-1.438c.132-.8.261-2.009.942-2.159a.783.783,0,0,1,.987.947c-.146.509.527.084.323.894s.416.177.177.872.266-.093.111,1.9-.288,4.638-.443,5.488-.389,1.389-.814,1.531a18.33,18.33,0,0,1-2.571-.345c-.526,0-1-.65-1.257-.818s-.5.212-.929.46-.58.027-.536-.6a3.4,3.4,0,0,0-.23-1.615,1.5,1.5,0,0,1-.142-.943A5.413,5.413,0,0,0-4197-4690.067Z" transform="translate(-3541.169 -2245.94)" fill="#c4c4c4"/>
    <path id="Path_5283" data-name="Path 5283" d="M-5638-4436.345a3.152,3.152,0,0,1,1.881-.558c.942-.053,2.407-.274,3.319.221a42.6,42.6,0,0,0,4.642,1.522,45.979,45.979,0,0,0,5.779.969c1.328.111,4.067.553,4.4.553s.6.274.655.77a19.754,19.754,0,0,1,0,2.9c-.08.305-1.429.274-2.288.274s-4.868.115-6.222,0-3.952.142-4.81,0-2.487.195-3.014-.274-.854,0-1.022,0a3.7,3.7,0,0,1-1.19.274c-.5-.053-1,.142-1.3-.274S-5638-4436.345-5638-4436.345Z" transform="translate(-2119.328 -2500.379)" fill="#7f5139"/>
    <path id="Path_5281" data-name="Path 5281" d="M-6907.767-4645.669c-.1.128-3.151,3.1-3.832,3.779s-1.8,2.213-2.284,2.69c-.5.478-1.682,1.474-2.124,1.876s-.646.721,0,1.093a24.985,24.985,0,0,0,4.328,1.12c1.292.261,6.833.221,8.187.221a40.7,40.7,0,0,0,5.47-.588c.929-.2,1.177-.111,1.15-.752s.222-.288-.168-1.283-.106-1.363-.106-2.483-.912-2.624-.876-3.1.38-1.044.38-1.3.044-1.035-.38-.942a9.976,9.976,0,0,1-2.938.195,18.1,18.1,0,0,0-3.814-.885c-1.071.018-1.744.248-2.2.195A1.237,1.237,0,0,0-6907.767-4645.669Z" transform="translate(-858.579 -2294.237)" fill="#20728a"/>
    <path id="Path_5274" data-name="Path 5274" d="M-6415.024-4455.715a2.912,2.912,0,0,0-1.836,1.2c-.239.456-.341.456,0,.222a5.9,5.9,0,0,1,.982-.713,2.454,2.454,0,0,1,1.106-.274c.376,0,.456-.177.2-.239A1.467,1.467,0,0,1-6415.024-4455.715Z" transform="translate(-1351.015 -2481.919)" fill="#145b70"/>
    <path id="Path_5275" data-name="Path 5275" d="M-6468.669-4352a7.512,7.512,0,0,0-1.124,1.345c-.182.425-.5.9,0,.345s.624-1.027.9-1.27.482-.42.482-.42Z" transform="translate(-1298.767 -2584.201)" fill="#145b70"/>
    <path id="Path_5276" data-name="Path 5276" d="M-6248.2-4506.664c-.128.3-.018.385-.261.442s-.363.093,0,.274a2.406,2.406,0,0,0,.646.19c.128.053.2-.04,0-.354" transform="translate(-1517.082 -2431.675)" fill="#145b70"/>
    <path id="Path_5277" data-name="Path 5277" d="M-6201.336-4545.336a7.848,7.848,0,0,1,.571,1.345c0,.168.261-.274.332-.274s-.292-.35-.46-.664A.837.837,0,0,0-6201.336-4545.336Z" transform="translate(-1563.777 -2393.537)" fill="#145b70"/>
    <path id="Path_5278" data-name="Path 5278" d="M-6153.567-4609.336a1.705,1.705,0,0,0-.23,1.252c.053.385.23.385.23.385a1.339,1.339,0,0,0,.252-.222c.106-.124-.261-.531-.252-.805S-6153.567-4609.336-6153.567-4609.336Z" transform="translate(-1610.633 -2330.422)" fill="#145b70"/>
    <path id="Path_5279" data-name="Path 5279" d="M-6127.579-4473.453a6.032,6.032,0,0,0,2.027.628,28.386,28.386,0,0,0,3.938,0,8.464,8.464,0,0,0,1.3-.071c.31-.058-.314.292-.611.345s-2.252,0-2.748,0a11.555,11.555,0,0,1-2.593-.075,3.485,3.485,0,0,1-1.46-.549C-6127.8-4473.285-6127.579-4473.453-6127.579-4473.453Z" transform="translate(-1636.353 -2464.427)" fill="#145b70"/>
    <g id="Group_3778" data-name="Group 3778" transform="translate(-7787.03 -6960.881) rotate(-45)">
      <path id="Path_5307" data-name="Path 5307" d="M3.095,2.431A11.062,11.062,0,0,1,1.781,4.175c-.381.4-.927.621-1.248.952A1.71,1.71,0,0,0,0,6.334c.06.661,1.483,1.132,1.663,1.588s2.026.644,1.978.956.262.294.382.258,1.287-1.228,1.791-1.3a2.124,2.124,0,0,1,1.537.236,4.924,4.924,0,0,1,1.2,1c.28.248.713.689,1.017.7a1.572,1.572,0,0,0,.809-.36c.176-.112.168-.184.288-.3s.4.192.632.144.264-.392.152-.528.088-.12.328-.088.3-.16.352-.472.056-.464.168-.512.536-.16.6-.288a5.8,5.8,0,0,0,0-1.073c0-.392-.056-.921.136-1.169a8.673,8.673,0,0,0,.8-.921A4.7,4.7,0,0,0,14.3,2.525a2.972,2.972,0,0,0-.3-1.084A4.176,4.176,0,0,0,13.366.427,1.054,1.054,0,0,0,11.8.283c-.616.448-.544,2.13-1.2,2.314S8.17,1.228,7.1,1.388s-2.706.233-3.074.393A5,5,0,0,0,3.095,2.431Z" transform="translate(1.361 3.949) rotate(8)" fill="#7f5139"/>
      <path id="Path_5308" data-name="Path 5308" d="M0,.137A2.246,2.246,0,0,1,1.3,2.311a6.411,6.411,0,0,1-.131,1.94c-.108.4.431-.274.623-1.079A5.681,5.681,0,0,0,1.525.761a1.286,1.286,0,0,0-.6-.7A1.331,1.331,0,0,0,0,.137Z" transform="translate(13.765 5.719) rotate(8)" fill="#7a4f39"/>
      <path id="Path_5309" data-name="Path 5309" d="M.391,7.56c.275-.22.329-.22.824,0a2.243,2.243,0,0,0,1.867-.453c.371-.343,1.425-.946,2.023-.668s.738.58.985,1.239.247.892.467.755A9.4,9.4,0,0,0,8.01,7.418a1.751,1.751,0,0,1,.809-.64c.316-.082.082-.714.48-1.071A.617.617,0,0,0,9.5,4.925c-.041-.165.467-.357.769-.274s.522.439.8.618.22-.069.371-.165.261-.151.206-.261a.408.408,0,0,1-.055-.247c0-.11.178-.151,0-.165s-.371.014-.316-.151.178-.233.082-.357-.192-.151-.192-.3.014-.11-.1-.206a.483.483,0,0,1-.192-.3c-.027-.137-.069-.151-.192-.178a.348.348,0,0,1-.233-.261.807.807,0,0,0-.3-.384,1.041,1.041,0,0,1-.288-.4c-.041-.082-.165-.11-.357-.206a.731.731,0,0,1-.371-.4c-.041-.137-.274-.22-.467-.316S8.53.7,8.448.6,8.407.629,8.077.519A3.833,3.833,0,0,0,7.419.354C7.144.3,7.213.025,6.9.162a.473.473,0,0,1-.521,0,.548.548,0,0,0-.4-.069A.961.961,0,0,1,5.456.025a.726.726,0,0,0-.522.069c-.151.082-.343-.082-.48.069S3.974.684,3.823.7a.364.364,0,0,0-.288.151c-.041.069-.041.027-.22.124s-.206.288-.329.4-.316.1-.412.233-.014.1-.124.288-.22.137-.384.329a5.657,5.657,0,0,0-.6.892c-.11.233-.11.1-.371.3a1.3,1.3,0,0,0-.494.7A6.5,6.5,0,0,0,.666,5.268a2.144,2.144,0,0,1,0,.522,1.5,1.5,0,0,1-.36.831A1.689,1.689,0,0,0,0,7.265C0,7.389.391,7.56.391,7.56Z" transform="translate(4.765 0) rotate(8)" fill="#343027"/>
      <path id="Path_5310" data-name="Path 5310" d="M1.162.027C.929.027.668-.124.723.288S.476.672.284.864s-.412.467-.192.563.357-.151.48.151.027.343.261.357.151-.3.233-.508.233-.3.1-.425-.11-.151.178-.247.3-.508.151-.59A2.063,2.063,0,0,0,1.162.027Z" transform="matrix(0.921, 0.391, -0.391, 0.921, 7.957, 7.281)" fill="#430b00"/>
      <path id="Path_5311" data-name="Path 5311" d="M.708.592A1.624,1.624,0,0,0,.159,1.759c.027.48.48.81.7.988s0,.206-.151.1S.1,2.582.022,2.061A1.933,1.933,0,0,1,.461.51C.832.112.941.043,1.12,0S.708.592.708.592Z" transform="matrix(0.921, 0.391, -0.391, 0.921, 7.552, 6.868)" fill="#430b00"/>
      <path id="Path_5312" data-name="Path 5312" d="M.46.074A.719.719,0,0,0,0,.722a.662.662,0,0,0,.456.769c.372.18.48-.06.264-.168s-.468-.1-.492-.48S.219.4.46.218.568-.01.532,0,.46.074.46.074Z" transform="matrix(0.921, 0.391, -0.391, 0.921, 7.505, 7.689)" fill="#430b00"/>
      <path id="Path_5313" data-name="Path 5313" d="M1.93,0A4.426,4.426,0,0,1,.447,1.368c-.592.24-.425,1.025-.425,1.025A5.39,5.39,0,0,1,1.4,1.329c.464-.128,1.433-.488,2.114.232A8.446,8.446,0,0,0,5.285,3.042c.336.168.937-.32,1.089-.5s-.52.216-.769.328-1.281-.9-1.569-1.225A4.757,4.757,0,0,0,2.587.873C2.179.7,2.154.624,2.09.5A4.029,4.029,0,0,1,1.93,0Z" transform="translate(4.483 11.271) rotate(8)" fill="#493421"/>
      <path id="Path_5314" data-name="Path 5314" d="M0,.193A5.448,5.448,0,0,1,.7,1.378a2.212,2.212,0,0,1,.176.673,2.071,2.071,0,0,0-.136-.977A3.947,3.947,0,0,0,0,.008,1.335,1.335,0,0,1,0,.193Z" transform="translate(1.881 11.432) rotate(-8)" fill="#493421"/>
      <path id="Path_5315" data-name="Path 5315" d="M.057.485A2.064,2.064,0,0,1,1.1,1.622c.36.785.12-.176-.216-.753A2.446,2.446,0,0,0,.057.013C-.071-.092.057.485.057.485Z" transform="translate(1.255 9.792) rotate(17)" fill="#493421"/>
    </g>
    <path id="Path_5280" data-name="Path 5280" d="M-6608.982-4440.242a8.218,8.218,0,0,0-2.133,1.96,6.236,6.236,0,0,0-.885,1.952,7.786,7.786,0,0,1,1.248-1.952c.664-.646,2.009-1.828,2.009-1.828Z" transform="translate(-1158.789 -2497.179)" fill="#145b70"/>
    <path id="Path_5285" data-name="Path 5285" d="M-7464.074-5691.086c0,.672.372,1.8.8,1.934s.752-.257,1.336-1.009a41.018,41.018,0,0,0,2.895-3.1,9.242,9.242,0,0,1,1.8-2.014,18.479,18.479,0,0,1,2.221-2.218c.762-.548.8-1.088.257-1.593s-1.354-.226-1.522-.394a1.769,1.769,0,0,1-.2-1.027,5.273,5.273,0,0,0,0-1.5c-.15-.274-.124-.5-.089-1.217a7.265,7.265,0,0,0-.283-2.342,13.823,13.823,0,0,1-.292-2.318,1.92,1.92,0,0,1,.292-1.328,3.963,3.963,0,0,1,.823-.694c.106-.11-.734-.8-1.115-1.075s-.549-.61-1.124-.752a8.389,8.389,0,0,1-1.46-.576c-.47-.221-.876-.168-1.354-.53s-1.425-.39-1.54-.208a3.1,3.1,0,0,1-1.708.482,8.471,8.471,0,0,1-2.744-.718c-.8-.278-1.194-.65-1.681.235s-.567.429-1.01,1.729-.937,1.222-.92,2.655a12.825,12.825,0,0,0,.4,3.377c.2.474,1.018,1.606,1.133,1.934s.07.682.327.921a.763.763,0,0,1,.336.717,2.091,2.091,0,0,0,.328,1.035c.142.279.5,1.487.726,2.045.212.549.734,1.566,1.009,2.124s.638,1.248.938,1.951.717,1.748.956,2.314Z" transform="translate(-311.955 -1241.424)" fill="#c4c4c4"/>
    <path id="Path_5286" data-name="Path 5286" d="M-7347.266-5536.127a6.617,6.617,0,0,0-2.859.239c-1.2.412-1.327,1.695-1.247,2.7s1.283,1.814,1.7,2.036.85.252.274-.416-1.363-.677-1.62-1.62a2.094,2.094,0,0,1,.177-1.9c.3-.434.5-.748,1.762-.806a7.063,7.063,0,0,1,2.39.212C-7346.318-5535.552-7347.266-5536.127-7347.266-5536.127Z" transform="translate(-429.617 -1416.396)" fill="#aaa"/>
    <path id="Path_5287" data-name="Path 5287" d="M-7421.917-5178.57a18.339,18.339,0,0,0,3.293.411,6.254,6.254,0,0,1,2.549.917c.531.354.531.23.673.451a4.208,4.208,0,0,1,.1,1.735c-.062.708-.4.912-.416.256s-.434-1.558-.584-1.044c-.168.514-.7.73-.7.39s-.371-.628-.911-.69-.566-.177-.451-.646-.2-.752-.912-.673.257-.018-1.142-.434-1.346-.221-1.584-.376S-7421.917-5178.57-7421.917-5178.57Z" transform="translate(-359.897 -1769.055)" fill="#878787"/>
    <path id="Path_5288" data-name="Path 5288" d="M-6940.646-5178.57c-.221.318-.832.672-.85,1.243s.274.553.593.553.9-.655,1.062-.929.416-.646.416-.646a8.211,8.211,0,0,1-.868-.124C-6940.514-5178.526-6940.646-5178.57-6940.646-5178.57Z" transform="translate(-833.846 -1769.055)" fill="#878787"/>
    <path id="Path_5289" data-name="Path 5289" d="M-6875.711-5501.43c.274.119,1.469.672,2.106,1.026a3.4,3.4,0,0,0,1.752.4,3.613,3.613,0,0,1,1.328.332c.195.1-.593.057-1.1,0a6.691,6.691,0,0,1-1.982-.332,10.645,10.645,0,0,1-1.7-.867A1.985,1.985,0,0,1-6875.711-5501.43Z" transform="translate(-898.723 -1450.658)" fill="#878787"/>
    <path id="Path_5290" data-name="Path 5290" d="M-7302.859-5703.895a2.493,2.493,0,0,1,1.327.137,8.947,8.947,0,0,0,2.39.77,5.2,5.2,0,0,0,1.823-.115,1.411,1.411,0,0,0,.514-.314s-.142.531-1.035.726a5.428,5.428,0,0,1-2.859-.412,4.7,4.7,0,0,0-1.442-.655A3.171,3.171,0,0,1-7302.859-5703.895Z" transform="translate(-477.479 -1250.958)" fill="#878787"/>
    <path id="Path_5291" data-name="Path 5291" d="M-6955.609-5579.837c1.168.491,1.682.77,1.92,1.124s-.159.513-.5.2c-.328-.319-.566-.261-1.239-.5s-.593-.434-1.239-.735-.779-.372,0-.274A8.208,8.208,0,0,1-6955.609-5579.837Z" transform="translate(-818.35 -1373.117)" fill="#aaa"/>
    <path id="Path_5292" data-name="Path 5292" d="M-6842.859-5626.394a3.106,3.106,0,0,1,1.566,1.244c.212.553,0-.217,0-.314a1.66,1.66,0,0,0-.655-.717A1.365,1.365,0,0,0-6842.859-5626.394Z" transform="translate(-931.121 -1327.412)" fill="#878787"/>
    <path id="Path_5293" data-name="Path 5293" d="M-6842.859-5657.764c.177.177.974.332,1.5.73s.212.1.177,0a2.516,2.516,0,0,0-.982-.633A1.337,1.337,0,0,0-6842.859-5657.764Z" transform="translate(-931.121 -1296.472)" fill="#878787"/>
    <path id="Path_5294" data-name="Path 5294" d="M-6568.163-5518.761c-.3.194-.637.256-.558.832s-.257.292-.4,0-.212-.221-.177-.5a2.6,2.6,0,0,0,0-.743c-.036-.4.177-.381.177,0s-.177.708,0,.566.1-.177.274-.155.124-.075.239-.412.106-.08,0,.212-.248.354.124.2S-6568.163-5518.761-6568.163-5518.761Z" transform="translate(-1200.894 -1432.872)" fill="#878787"/>
    <path id="Path_5295" data-name="Path 5295" d="M-6680.45-5580.059a1.62,1.62,0,0,1,.973.991c.08.376-.062.1-.336-.239a3.277,3.277,0,0,0-.734-.576C-6680.637-5579.957-6680.45-5580.059-6680.45-5580.059Z" transform="translate(-1091.165 -1373.117)" fill="#aaa"/>
    <path id="Path_5296" data-name="Path 5296" d="M-6697.816-5542.86a2.3,2.3,0,0,1,.7,1.173c.132.389.292.053.584.292s0-.274-.177-.514-.407-.743-.788-.951S-6697.816-5542.86-6697.816-5542.86Z" transform="translate(-1074.156 -1409.708)" fill="#aaa"/>
    <path id="Path_5297" data-name="Path 5297" d="M-7100.7-4848c-.549,1.8-.3,2.044-.991,3.956s-.947,2.071-.416,1.465,1.328-1.19,1.407-2.075.274-2.35.274-2.819S-7100.7-4848-7100.7-4848Z" transform="translate(-675.171 -2095.058)" fill="#aaa"/>
    <path id="Path_5298" data-name="Path 5298" d="M-7000.456-4433.25a5.08,5.08,0,0,1-2.319,1.482c-.832.221-.443,1.106,0,.942s.6-.442,1.327-.942a13.844,13.844,0,0,1,1.771-1.075C-6998.986-4433.206-7000.456-4433.25-7000.456-4433.25Z" transform="translate(-772.934 -2504.074)" fill="#aaa"/>
    <path id="Path_5299" data-name="Path 5299" d="M-6915.423-4383.645a9.3,9.3,0,0,1-1.956,1.438c-.885.526-.743.774-.194.5a6.419,6.419,0,0,0,1.637-1.08,6.8,6.8,0,0,1,.85-.858C-6914.67-4383.949-6915.423-4383.645-6915.423-4383.645Z" transform="translate(-857.005 -2552.861)" fill="#878787"/>
    <path id="Path_5300" data-name="Path 5300" d="M-6699.818-4611.5a7.931,7.931,0,0,1-2.434,1.823c-.885.279-1.823.637-1.08.5s1.363.084,2.213-.5.478-.77,1.3-1.3,1.682-1.328,1.212-1.053-.832.442-.938.526S-6699.818-4611.5-6699.818-4611.5Z" transform="translate(-1068.454 -2327.713)" fill="#878787"/>
    <path id="Path_5301" data-name="Path 5301" d="M-6750.457-4664.629a10.141,10.141,0,0,1-1.788,1.222,13.59,13.59,0,0,1-2.655,1.106c-.912.19-.752.327-.274.327a16.314,16.314,0,0,0,2.514-.965,5.914,5.914,0,0,0,2.2-1.274c.195-.248.363-.332.257-.416A.265.265,0,0,0-6750.457-4664.629Z" transform="translate(-1017.215 -2275.857)" fill="#878787"/>
    <path id="Path_5303" data-name="Path 5303" d="M-6751.3-5156c.292.018,2.859.221,3.063.239.221.018.336-.071.372.111s-.062.553,0,.664a9.334,9.334,0,0,1-2.62,0c-1.053-.11-1.16-.031-1.372-.434s-.212-.323.08-.341A.738.738,0,0,0-6751.3-5156Z" transform="translate(-1020.935 -1791.313)" fill="#878787"/>
    <path id="Path_5302" data-name="Path 5302" d="M-6779.93-5163.8a42.882,42.882,0,0,0,1.363,5.713c.743,1.956,1.39,1.881,1.558,2.031s.6,0,.2-.482a5.88,5.88,0,0,1-1.877-3.443,23.164,23.164,0,0,1-.425-3.908l-.885-.11Z" transform="translate(-993.111 -1783.424)" fill="#aaa"/>
    <path id="Path_5306" data-name="Path 5306" d="M-6495.261-5451.949a1.97,1.97,0,0,0-1.146.845c-.305.566-.341.566-.261.73a8.53,8.53,0,0,0,2.447.664c.8.111,5.24,2,5.873,2.16a41.349,41.349,0,0,0,4.191.637,14.011,14.011,0,0,1,3.106.562,4.061,4.061,0,0,1,1.3.858,2.787,2.787,0,0,0,1.828.221,7.735,7.735,0,0,1,1.447.053c.527,0,.65-.314.606-.606s.526.1,1.12,0a3.4,3.4,0,0,1,1.509,0c.288.124.553-.04.54-.261s-.115-.385-.416-.58a38.006,38.006,0,0,0-5.1-1.717,4.358,4.358,0,0,1-1.96-.761,1.9,1.9,0,0,0-1.314-.442c-.81-.04-3.022-.124-3.7-.168a7.109,7.109,0,0,1-2.417-.407,7.884,7.884,0,0,0-2.739-.487,25.123,25.123,0,0,1-4.31-1.009C-6495.216-5451.865-6495.261-5451.949-6495.261-5451.949Z" transform="translate(-1272.492 -1499.454)" fill="#683f29"/>
    <path id="Path_5304" data-name="Path 5304" d="M-6636.6-5029.173a6.764,6.764,0,0,1,1.212,2.509,4.259,4.259,0,0,0,.628,1.6c.159.239.292.168.425.071s.036-.442,0-.695-.248-.354-.336-.978.2-.9-.088-1.677a13.265,13.265,0,0,0-.54-1.588c-.221-.35-1.549-.332-1.637.243S-6636.6-5029.173-6636.6-5029.173Z" transform="translate(-1134.186 -1915.413)" fill="#aaa"/>
    <path id="Path_5305" data-name="Path 5305" d="M-6860.3-5389.92a22.179,22.179,0,0,0-2.266,2.6c-.15.31.664.332,1.9.513a35.543,35.543,0,0,0,4.08.261,12.114,12.114,0,0,1,2.885.46,10.514,10.514,0,0,0,2.593-.093c.868,0,4.461.244,5.735.093a14.742,14.742,0,0,1,3.885-.182,3.142,3.142,0,0,0,1.5.182,13.651,13.651,0,0,1,1.69.279,3.571,3.571,0,0,1,1.053.106c.628.168,1.195.279,1.5.39s.478-.071.478-.168.31.058.637.168.389.137.442,0,.044-.071.292,0,.221-.23.124-.39a6.907,6.907,0,0,0-1.8-.929,8.133,8.133,0,0,1-1.575-.536,4.3,4.3,0,0,0-1.292-.332,20.36,20.36,0,0,1-2.257-.717,1.861,1.861,0,0,0-1.115-.195,24.971,24.971,0,0,1-3.558-.071c-.841-.1-5-.469-5.859-.482a17.308,17.308,0,0,0-2.266-.155,20.315,20.315,0,0,1-3.69-.442c-.54-.111-2.956-.442-3.027-.442S-6860.3-5389.92-6860.3-5389.92Z" transform="translate(-911.666 -1560.548)" fill="#7f5139"/>
    <path id="Path_5318" data-name="Path 5318" d="M-4197-4707.814c.274-.354.642-.106,1.062.084s.938-.2,1.354-.585a2.557,2.557,0,0,0,.885-1.159,13.218,13.218,0,0,0,.655-1.677,7.1,7.1,0,0,0,.5-1.687c.132-.8.261-2.009.942-2.159a.784.784,0,0,1,.987.947c-.146.509.527.084.323.894s.416.186.177.872.266.154.111,2.146-.288,4.638-.443,5.488-.389,1.394-.814,1.53a18.254,18.254,0,0,1-2.571-.345c-.526,0-1-.65-1.257-.814s-.5.208-.929.456-.58.031-.536-.6a3.4,3.4,0,0,0-.23-1.615,1.482,1.482,0,0,1-.142-.937A5.348,5.348,0,0,0-4197-4707.814Z" transform="translate(-3540.478 -2226.364)" fill="#b7b7b7"/>
    <path id="Path_5316" data-name="Path 5316" d="M-4197-4707.814c.274-.354.642-.106,1.062.084s.938-.2,1.354-.585a2.557,2.557,0,0,0,.885-1.159,13.218,13.218,0,0,0,.655-1.677,7.1,7.1,0,0,0,.5-1.687c.132-.8.261-2.009.942-2.159a.784.784,0,0,1,.987.947c-.146.509.527.084.323.894s.416.186.177.872.266.154.111,2.146-.288,4.638-.443,5.488-.389,1.394-.814,1.53a18.254,18.254,0,0,1-2.571-.345c-.526,0-1-.65-1.257-.814s-.5.208-.929.456-.58.031-.536-.6a3.4,3.4,0,0,0-.23-1.615,1.482,1.482,0,0,1-.142-.937A5.348,5.348,0,0,0-4197-4707.814Z" transform="translate(-3540.409 -2226.198)" fill="#c4c4c4"/>
  </g>
</svg>
