<svg xmlns="http://www.w3.org/2000/svg" width="63.707" height="23.54" viewBox="0 0 63.707 23.54">
  <g id="Group_3781" data-name="Group 3781" transform="matrix(0.999, -0.035, 0.035, 0.999, 4988.026, 7904.725)">
    <path id="Path_5359" data-name="Path 5359" d="M-4149.606-7279.721a2.3,2.3,0,0,0-.365,1.043c-.017.48-.149.546.265.662a21.59,21.59,0,0,0,4.5.066,27.532,27.532,0,0,1,5.563-.148,8.222,8.222,0,0,0,2.3.6,9.507,9.507,0,0,0,2.9-.6c.364-.133.21-.58.287-1.165s.132-.883,0-.9-.376.032-1.071,0a29.3,29.3,0,0,1-3.709-.784,11.635,11.635,0,0,0-3.951-.066,22.668,22.668,0,0,0-4.228.938,5.709,5.709,0,0,1-2.064.22C-4149.541-7279.859-4149.606-7279.721-4149.606-7279.721Z" transform="translate(-550.401 -778.701)" fill="#683f29"/>
    <path id="Path_5361" data-name="Path 5361" d="M-4653.606-7316.326c.408-.485.32-.927.475-1.257s.419-.686.177-.707-.022.464-.375,0-.177-.64-.685-.95a5.378,5.378,0,0,1-.993-.838c-.243-.222-1.678.4-2.319.838a6.87,6.87,0,0,0-1.942,1.855c-.11.419.154.552-.663.971a5.435,5.435,0,0,0-2.008,1.59.731.731,0,0,0,.353,1.148,2.571,2.571,0,0,0,2.12-1.148,3.864,3.864,0,0,1,3.046-1.5A20.635,20.635,0,0,1-4653.606-7316.326Z" transform="translate(-46.799 -740.369)" fill="#c4c4c4"/>
    <path id="Path_5358" data-name="Path 5358" d="M-4205.953-7144.845a13.28,13.28,0,0,0-1.656,0,6.49,6.49,0,0,1-2.109-.144,10.822,10.822,0,0,0-3.377-.486c-1.391.033-4.195.353-5.221.452s-2.87.122-3.355.177-.531.221-.508.828-.144,1.114,0,1.446,1.027.177,1.92.232,2.948.6,3.974.75,2.66-.1,3.477.078a22.963,22.963,0,0,1,2.66.806c.364.154.564-.078.785.132a1.483,1.483,0,0,0,1.247.287,1.744,1.744,0,0,1,1.468.232,2.063,2.063,0,0,0,1.182.419c.3.011.573.143.729.143s.066-.828-.11-1.644-.332-2.119-.475-2.517A9.764,9.764,0,0,0-4205.953-7144.845Z" transform="translate(-479.363 -912.125)" fill="#7f5139"/>
    <path id="Path_5319" data-name="Path 5319" d="M-3245.967-7341.5a4.387,4.387,0,0,0-.447,1.788c-.033.5-.033.547-.182.563s-.612-.332-.5.447.745,2.086.878,2.864.364,1.855.364,2.054-.646-.033-.679.083a7.539,7.539,0,0,0,.679,1.739c.281.513,1.622.166,2.467,0s1.043-.447,2-.662,2.914-.149,3.609-.414a31.909,31.909,0,0,1,3.643-.3c.993-.149.778-.4.745-.844s-.1-1.242-.3-2.732a22.787,22.787,0,0,1-.309-3.6c.044-.86.155-1.6.143-1.788s-.618-.387-.982-.42-.772-.143-1.3-.187-1.214-.144-1.578.187-.42.663-.707.652a3.025,3.025,0,0,0-1.192.288,1.909,1.909,0,0,1-1.026.208,5.9,5.9,0,0,0-1.711,0,13.533,13.533,0,0,1-1.876.072C-3244.863-7341.451-3245.967-7341.5-3245.967-7341.5Z" transform="translate(-1438.344 -717.914)" fill="#20728a"/>
    <path id="Path_5320" data-name="Path 5320" d="M-3178.983-6986.05c1.043,1.247,1.684,1.482,2.306,2.189s.3.5.993.656,1.01-.135.539-.186a1.6,1.6,0,0,1-1.061-.471,4.5,4.5,0,0,1-1.162-1.027c-.657-.742-1.077-.792-1.347-1.162S-3178.983-6986.05-3178.983-6986.05Z" transform="translate(-1505.345 -1068.751)" fill="#145b70"/>
    <path id="Path_5348" data-name="Path 5348" d="M-2264.665-7395.789a3.924,3.924,0,0,0-1.36.661,1.659,1.659,0,0,1-1.046.366,2.236,2.236,0,0,0-1.168.4c-.349.261-.767.209-.959.453s-.227.174-.523.383a.681.681,0,0,0-.087.941c.209.262.906.313,2.213-.1s1.516-1.343,2.388-1.847,1.133-.96.993-1.046A3.775,3.775,0,0,0-2264.665-7395.789Z" transform="translate(-2399.322 -665.958)" fill="#683f29"/>
    <path id="Path_5321" data-name="Path 5321" d="M-3169.484-7041.334a12.423,12.423,0,0,0,2.682,2.684,11.244,11.244,0,0,0,1.988.981c.342.188-.585.1-1.06-.088s-.993-.772-1.567-1.081-.828-.829-1.258-1.127a2.231,2.231,0,0,1-.828-.961A.463.463,0,0,1-3169.484-7041.334Z" transform="translate(-1514.617 -1014.544)" fill="#145b70"/>
    <g id="Group_3780" data-name="Group 3780" transform="matrix(0.966, -0.259, 0.259, 0.966, -4656.768, -8070.413)">
      <path id="Path_5349" data-name="Path 5349" d="M.026,2.232c-.087.126.066.287.111.781A4.7,4.7,0,0,0,.505,4.306,7.579,7.579,0,0,1,.783,6.146c-.036.233.009.207.1.18A5,5,0,0,1,1.96,5.859a1.588,1.588,0,0,1,1.149.177,3.681,3.681,0,0,1,.9.748c.209.186.533.515.76.527a1.175,1.175,0,0,0,.6-.269c.132-.084.126-.138.216-.227s.3.144.473.108.2-.293.114-.4.066-.09.245-.066.227-.12.263-.353.042-.347.126-.383.4-.12.449-.216a4.335,4.335,0,0,0,0-.8c0-.293-.042-.688.1-.874a6.484,6.484,0,0,0,.6-.688A3.517,3.517,0,0,0,8.3,1.887a2.222,2.222,0,0,0-.227-.81A3.122,3.122,0,0,0,7.6.319.788.788,0,0,0,6.431.211c-.461.335-.407,1.592-.9,1.73S3.72.918,2.917,1.037a8.947,8.947,0,0,0-2.185.928C.457,2.085.026,2.232.026,2.232Z" transform="translate(1.018 3.252) rotate(8)" fill="#7f5139"/>
      <path id="Path_5350" data-name="Path 5350" d="M0,.1A1.679,1.679,0,0,1,.97,1.728a4.793,4.793,0,0,1-.1,1.45c-.081.3.322-.205.466-.807a4.248,4.248,0,0,0-.2-1.8A.962.962,0,0,0,.691.049,1,1,0,0,0,0,.1Z" transform="translate(7.926 4.242) rotate(8)" fill="#7a4f39"/>
      <path id="Path_5351" data-name="Path 5351" d="M.051,5.652c.205-.164.246-.164.616,0a1.677,1.677,0,0,0,1.4-.339A3.107,3.107,0,0,1,3.6,4.821a1.213,1.213,0,0,1,1.036.831c.185.493.185.667.349.564A7.006,7.006,0,0,0,5.8,5.385a.864.864,0,0,1,.554-.318c.236-.062.062-.534.359-.8a.461.461,0,0,0,.154-.585c-.031-.123.349-.267.575-.205s.39.328.6.462.164-.051.277-.123.195-.113.154-.195a.3.3,0,0,1-.041-.185c0-.082.133-.113,0-.123s-.277.01-.236-.113.133-.174.062-.267-.144-.113-.144-.226.01-.082-.072-.154a.361.361,0,0,1-.144-.226c-.021-.1-.051-.113-.144-.133A.261.261,0,0,1,7.573,2a.6.6,0,0,0-.226-.287.778.778,0,0,1-.216-.3c-.031-.062-.123-.082-.267-.154a.546.546,0,0,1-.277-.3C6.557.86,6.383.8,6.239.727S6.136.521,6.075.45,6.044.47,5.8.388A2.866,2.866,0,0,0,5.305.265C5.1.224,5.151.019,4.915.121a.353.353,0,0,1-.39,0,.41.41,0,0,0-.3-.051.718.718,0,0,1-.39-.051.542.542,0,0,0-.39.051c-.113.062-.257-.062-.359.051s-.359.39-.472.4A.272.272,0,0,0,2.4.634C2.37.686,2.37.655,2.237.727s-.154.215-.246.3-.236.072-.308.174-.01.072-.092.215-.164.1-.287.246a4.229,4.229,0,0,0-.452.667C.77,2.5.77,2.4.575,2.553a.974.974,0,0,0-.369.523,4.863,4.863,0,0,0,.051.862,1.6,1.6,0,0,1,0,.39c0,.246.051.544-.051.677a1.238,1.238,0,0,0-.205.5A.212.212,0,0,0,.051,5.652Z" transform="translate(1.435 0) rotate(8)" fill="#343027"/>
      <path id="Path_5352" data-name="Path 5352" d="M.869.02C.694.02.5-.093.541.215S.356.5.212.646-.1,1,.069,1.067.335.954.428,1.18s.021.257.195.267.113-.226.174-.38S.972.841.869.749.787.636,1,.564s.226-.38.113-.441A1.543,1.543,0,0,0,.869.02Z" transform="translate(3.639 5.655) rotate(8)" fill="#430b00"/>
      <path id="Path_5353" data-name="Path 5353" d="M.529.443a1.214,1.214,0,0,0-.41.872c.02.359.359.605.523.739s0,.154-.113.072S.078,1.931.016,1.541A1.445,1.445,0,0,1,.345.381C.622.084.7.032.837,0S.529.443.529.443Z" transform="translate(3.266 5.435) rotate(8)" fill="#430b00"/>
      <path id="Path_5354" data-name="Path 5354" d="M.344.055A.537.537,0,0,0,0,.54a.5.5,0,0,0,.341.575c.278.135.359-.045.2-.126S.191.917.173.63.164.3.344.163.424-.008.4,0,.344.055.344.055Z" transform="translate(3.391 6.037) rotate(8)" fill="#430b00"/>
      <path id="Path_5355" data-name="Path 5355" d="M1.514,0A2.7,2.7,0,0,1,.551.994,1.107,1.107,0,0,0,0,1.365S.772,1.089,1.119.994,2.191.629,2.7,1.167A6.315,6.315,0,0,0,4.023,2.275c.251.126.7-.239.814-.371s-.389.162-.575.245-.958-.67-1.173-.916A3.557,3.557,0,0,0,2.005.652C1.7.521,1.682.467,1.634.371A3.012,3.012,0,0,1,1.514,0Z" transform="translate(0.915 8.383) rotate(8)" fill="#493421"/>
      <path id="Path_5356" data-name="Path 5356" d="M0,.144a4.073,4.073,0,0,1,.521.886,1.654,1.654,0,0,1,.132.5A1.549,1.549,0,0,0,.551.8,2.951,2.951,0,0,0,0,.006,1,1,0,0,1,0,.144Z" transform="translate(0.627 6.215) rotate(8)" fill="#493421"/>
      <path id="Path_5357" data-name="Path 5357" d="M.043.363a1.543,1.543,0,0,1,.778.85C1.09,1.8.911,1.081.659.65A1.829,1.829,0,0,0,.043.009C-.053-.068.043.363.043.363Z" transform="translate(0.544 5.517) rotate(8)" fill="#493421"/>
    </g>
    <path id="Path_5346" data-name="Path 5346" d="M-2464.989-7590.09c.1-.215.364-.249.6,0s.463.232.729.3.712-.1.795.232.132.431.364.183.281.05.43.231.3-.1.331-.231.3-.166.332.149.232.116.3-.083.348-.016.414.249.894-.116,1.225-.249.6-.214.745-.48.281-.231.546-.3a1.318,1.318,0,0,0,.877-.414c.215-.314.315-.2.415-.662s.381-.414.646-.53a3.525,3.525,0,0,0,1.242-.778,3.7,3.7,0,0,1,2.169-1.209c.927-.082,1.391-.116,1.689-.364a2.194,2.194,0,0,1,1.507-.149,3.051,3.051,0,0,0,1.242-.116c.215-.05.431.017.547-.182s.115-.53.48-.216a3.581,3.581,0,0,1,1.093,1.424,7.111,7.111,0,0,1,.381,2.566c-.033.448.1.711.066,1.226s-.315.695-.447.977-.264.878-.463,1.275-1.109,1.192-1.656,2.069-.6,1.175-1.457,1.44a3.83,3.83,0,0,0-1.706.778,5.419,5.419,0,0,1-1.838,1.26,9.908,9.908,0,0,1-2.7.728c-.612.05-.977-.265-1.54-.132a16.628,16.628,0,0,1-2.467.414,2.51,2.51,0,0,0-1.308.231c-.563.249-1.192.2-1.457.348s-.332.3-.414,0-.4-.4-.58-.513-.381-.083-.53-.58a13.521,13.521,0,0,1-.215-2.021c-.066-.678-.3-2.036-.381-2.566a15.93,15.93,0,0,1-.116-2.9A9.364,9.364,0,0,0-2464.989-7590.09Z" transform="translate(-2207.367 -470.203)" fill="#c4c4c4"/>
    <path id="Path_5322" data-name="Path 5322" d="M-2986.391-6994.34c-.464-.078-.2.641.519,1.335s.729,1.126,1.248,1.436.949.176.64.077a2.214,2.214,0,0,1-.982-.6,8.65,8.65,0,0,0-.905-1.346A1.5,1.5,0,0,1-2986.391-6994.34Z" transform="translate(-1694.52 -1060.754)" fill="#145b70"/>
    <path id="Path_5323" data-name="Path 5323" d="M-3198.595-7282.352a3.572,3.572,0,0,1,1.568-.475,16.944,16.944,0,0,1,1.821-.265,14.856,14.856,0,0,0,1.711,0c.574-.1.828.011.806-.177s.155-.4.254-.231.121.111.375-.253.507-.276.839-.795.574-.475.386-.21-.21.441-.452.629-.42.375-.133.375-.3.153-.408.253,0-.011.154.231.088.574-.154.32-.63-.188-.354,0,.5.243.508.805-.243,1.237-.276.729,0-.849-.232-1.1-.166-.475-.508-.431a4.9,4.9,0,0,1-.982,0,10.034,10.034,0,0,0-1.413,0c-.408.044-.872.122-1.567.254a6.976,6.976,0,0,0-1.358.242c-.485.188-.541.365-.684.354S-3198.595-7282.352-3198.595-7282.352Z" transform="translate(-1485.915 -774.96)" fill="#145b70"/>
    <path id="Path_5324" data-name="Path 5324" d="M-2862.667-7032.353a2.284,2.284,0,0,1,1.612,1.645c.187.574.386.861.331.331a2.322,2.322,0,0,0-.794-1.633C-2862.17-7032.662-2862.667-7032.353-2862.667-7032.353Z" transform="translate(-1816.423 -1023.304)" fill="#145b70"/>
    <path id="Path_5325" data-name="Path 5325" d="M-2748.624-7205.293c-.177-.574-.188-.883-.254-.851s-.452.276.044,1.126.75,1.171,1,1.578a2.538,2.538,0,0,1,.607,1.215c.055.563.155.31.188.111s.232-.377,0-.785-.375-.353-.707-.849a5.87,5.87,0,0,1-.74-1.1C-2748.668-7205.315-2748.624-7205.293-2748.624-7205.293Z" transform="translate(-1928.126 -852.461)" fill="#145b70"/>
    <path id="Path_5326" data-name="Path 5326" d="M-2566.011-7166.614c-.453-.109-.64.2-.486,1.026a6.686,6.686,0,0,1,.265,1.656c0,.75-.243,1.324,0,1.49s.419-.331.32-.839-.188-.441.11-1.049.055-.948-.11-1.457A1.762,1.762,0,0,1-2566.011-7166.614Z" transform="translate(-2107.637 -891.317)" fill="#145b70"/>
    <path id="Path_5327" data-name="Path 5327" d="M-3215.172-6794.707c-.21,0-.431-.077-.563,0s-.155.089,0,.166.364-.2.419.122a1.65,1.65,0,0,0,.309.905c.21.188.2-.166.077-.431a1.176,1.176,0,0,1-.154-.475A.705.705,0,0,0-3215.172-6794.707Z" transform="translate(-1469.095 -1257.054)" fill="#145b70"/>
    <path id="Path_5330" data-name="Path 5330" d="M-2246.123-7248c.3.166.4-.2.463.2s.067.927.166,1.688,0,.8-.166,0-.1-1.125-.3-1.39A.724.724,0,0,1-2246.123-7248Z" transform="translate(-2422.757 -811.3)" fill="#878787"/>
    <path id="Path_5331" data-name="Path 5331" d="M-2303.784-7248c0,.375-.331.331-.221,1.28s.044,1.06.221,1.214.2.022.155-.64a5.542,5.542,0,0,1,0-1.369C-2303.563-7247.934-2303.784-7248-2303.784-7248Z" transform="translate(-2365.813 -811.3)" fill="#aaa"/>
    <path id="Path_5332" data-name="Path 5332" d="M-2189-7235.842a9.39,9.39,0,0,0,.5,2.119c.166.3.149.215.265.066s-.017-.463-.265-1.06-.3-.53-.348-.944S-2189-7235.842-2189-7235.842Z" transform="translate(-2478.936 -823.193)" fill="#aaa"/>
    <path id="Path_5333" data-name="Path 5333" d="M-2064.769-7284.951c-.182.1-.53.05-.381.313s.43.414.546.895.265.447.232.2a6.646,6.646,0,0,1-.232-.878A.947.947,0,0,0-2064.769-7284.951Z" transform="translate(-2600.7 -774.96)" fill="#aaa"/>
    <path id="Path_5334" data-name="Path 5334" d="M-1964.245-7351c0,.2-.2.049,0,.431a4.414,4.414,0,0,1,.348,1.342c.083.513-.05.628.132.611s.348-.115.265-.414-.182-.347-.4-1.059A4.044,4.044,0,0,0-1964.245-7351Z" transform="translate(-2699.882 -710.005)" fill="#aaa"/>
    <path id="Path_5335" data-name="Path 5335" d="M-1877.479-7414.008c-.513.265-.281.629-1.109,1.043a2.1,2.1,0,0,0-1.01,1.772c-.033.414.017.446.132.446s.066-.347.315-.877.1-.7.778-1.076.994-.663,1.06-.994S-1877.479-7414.008-1877.479-7414.008Z" transform="translate(-2783.205 -648.041)" fill="#aaa"/>
    <path id="Path_5336" data-name="Path 5336" d="M-1766.678-7318.3a1.878,1.878,0,0,1,2.07-.415c.944.282.977.729.844.927s-.083.083-.7-.348a1.882,1.882,0,0,0-1.722-.249c-.4.166-.48.5-.58.4S-1766.678-7318.3-1766.678-7318.3Z" transform="translate(-2894.154 -741.615)" fill="#878787"/>
    <path id="Path_5337" data-name="Path 5337" d="M-1718.056-7516.817c-.546.065-1.474.895-2.2,1.076s-.844.065-.828.446,0,.431.232.232.066-.248.844-.414,1.159-.762,1.954-.993S-1717.51-7516.884-1718.056-7516.817Z" transform="translate(-2939.101 -546.92)" fill="#878787"/>
    <path id="Path_5338" data-name="Path 5338" d="M-1928.656-7454.3a3.045,3.045,0,0,1-1.722.927c-.629.166-.96.216-.232.331s1.026-.331,1.474-.447a1.323,1.323,0,0,0,.944-.811C-1928.143-7454.618-1928.656-7454.3-1928.656-7454.3Z" transform="translate(-2732.64 -608.275)" fill="#aaa"/>
    <path id="Path_5339" data-name="Path 5339" d="M-1591.656-7350.181a3.327,3.327,0,0,1,2.749,1.308,2.433,2.433,0,0,1,.546,1.49c0,.3.348-.083.265-.529a2.078,2.078,0,0,0-1.192-1.838c-1.159-.679-1.672-.712-2.07-.646S-1591.656-7350.181-1591.656-7350.181Z" transform="translate(-3066.379 -710.576)" fill="#aaa"/>
    <path id="Path_5340" data-name="Path 5340" d="M-1466.688-7558.356a3.182,3.182,0,0,1,1.209,1.325c.331.695.281.943.083.58a4.927,4.927,0,0,0-1.225-1.491c-.513-.347-.546-.447-.364-.414A.725.725,0,0,0-1466.688-7558.356Z" transform="translate(-3188.896 -506.077)" fill="#aaa"/>
    <path id="Path_5341" data-name="Path 5341" d="M-1413.616-7444.113a2.477,2.477,0,0,1,1.176,2.268c-.05.761-.182,1.143,0,.761s.3-.414.166-1.49-.05-1.241-.348-1.407-.629-.017-.993-.347S-1413.616-7444.113-1413.616-7444.113Z" transform="translate(-3241.322 -618.117)" fill="#878787"/>
    <path id="Path_5342" data-name="Path 5342" d="M-1825.489-7158.055a27.935,27.935,0,0,1-2.612,2.119c-.679.381-1.8,1.54-2.252,1.755s-.662.05-1.159-.563a6.622,6.622,0,0,0-1.275-1.192c-.215-.149-.381-.066-.215.149s1.358,1.159,1.722,1.523.348.463.679.48.861-.629,1.275-.961.944-.761,1.722-1.308,1.308-1.159,1.854-1.539.58-.6.431-.629S-1825.489-7158.055-1825.489-7158.055Z" transform="translate(-2828.972 -899.589)" fill="#878787"/>
    <path id="Path_5344" data-name="Path 5344" d="M-1799.4-6913.785c.033.205,0,.868.2,1.067s.232.414-.083.364-.116-.662-.331-.48-.116.514-.546.761-.4-.033-.2-.364a6.388,6.388,0,0,0,.745-1.143C-1799.5-6913.96-1799.4-6913.785-1799.4-6913.785Z" transform="translate(-2861.001 -1139.941)" fill="#878787"/>
    <path id="Path_5343" data-name="Path 5343" d="M-2158.33-6927.984a7.462,7.462,0,0,0,2.921.612c1.391-.082,2.169.315,2.782-.762s.828-1.754.844-1.241a3.288,3.288,0,0,1-1.457,2.218,6.425,6.425,0,0,1-3.361,0,4.029,4.029,0,0,1-1.9-.662C-2158.869-6928.216-2158.33-6927.984-2158.33-6927.984Z" transform="translate(-2508.801 -1124.478)" fill="#aaa"/>
    <path id="Path_5345" data-name="Path 5345" d="M-1872-7211.584a14.728,14.728,0,0,1,1.838,2.517c.116.4-.232.414-.513.43s-.215.183.116.314.464-.264.7.1.215.529.4.745.182-.265,0-.629-.149-.2-.7-1.175a9.221,9.221,0,0,0-1.374-2.069C-1871.9-7211.668-1872-7211.584-1872-7211.584Z" transform="translate(-2790.687 -847.103)" fill="#878787"/>
    <path id="Path_5347" data-name="Path 5347" d="M-2904.294-7211.595a8.252,8.252,0,0,1-1.563.705,7.515,7.515,0,0,0-2.186.978,30.658,30.658,0,0,0-3.51,2.979c-.546.629-2.351,1.889-2.55,2.137a.849.849,0,0,1-.853.182,5.757,5.757,0,0,0-.877-.5,4.251,4.251,0,0,0-1.126,0,2.369,2.369,0,0,1-1.035-.174c-.182-.074-.646-.248-.886.041s.124.481.629.638.737.008.8.215-.422.248-.662.265a5.921,5.921,0,0,0-1.267.091,1.935,1.935,0,0,1-.679.232,6.079,6.079,0,0,0-.861.116c-.232.065-.042.2-.215.248s-.43.05-.414.291.314.115.339.272.116.207.323.207a9.437,9.437,0,0,0,1.548-.149,12.559,12.559,0,0,1,2.26-.125,12.023,12.023,0,0,1,1.8-.141,1.715,1.715,0,0,0,1.482-.207,5.267,5.267,0,0,1,1.49-.944c.563-.231,4.372-1.937,4.827-2.186s1.548-1.06,2-1.349a9.21,9.21,0,0,1,2.169-.8c.488-.1.877-.149.927-.249s.042-.215-.058-.439-.72-1.035-.82-1.192-.712-.877-.811-.994A.454.454,0,0,0-2904.294-7211.595Z" transform="translate(-1758.519 -847.102)" fill="#7f5139"/>
    <path id="Path_5362" data-name="Path 5362" d="M-4701.15-7165.984a3.707,3.707,0,0,0-.148,1.457c.1.381.215.744-.116.744s-.4-.265-.612-.132-.646,0-1.06.364a1.635,1.635,0,0,1-1.209.58c-.431-.05-1.242.348-1.723.348a2.041,2.041,0,0,0-1.44.679c-.348.414-.48.629-.629.828s-.778.5-.894,0-.282-.248-.5-.628a2.265,2.265,0,0,1,.248-2.269c.629-.629,2.8-1.657,3.212-2.368s.778-1.11,2.137-1.043,1.589.347,1.854.53,1.075.348.977.629" transform="translate(0 -890.666)" fill="#b7b7b7"/>
    <path id="Path_5360" data-name="Path 5360" d="M-4701.15-7165.984a3.707,3.707,0,0,0-.148,1.457c.1.381.215.744-.116.744s-.4-.265-.612-.132-.646,0-1.06.364a1.635,1.635,0,0,1-1.209.58c-.431-.05-1.242.348-1.723.348a2.041,2.041,0,0,0-1.44.679c-.348.414-.48.629-.629.828s-.778.5-.894,0-.282-.248-.5-.628a2.265,2.265,0,0,1,.248-2.269c.629-.629,2.8-1.657,3.212-2.368s.778-1.11,2.137-1.043,1.589.347,1.854.53,1.075.348.977.629" transform="translate(0 -890.534)" fill="#c4c4c4"/>
  </g>
</svg>
