<svg xmlns="http://www.w3.org/2000/svg" width="10.5" height="12" viewBox="0 0 10.5 12">
  <path id="Icon_awesome-calendar-check" data-name="Icon awesome-calendar-check" d="M10.219,3.75H.281A.281.281,0,0,1,0,3.469V2.625A1.125,1.125,0,0,1,1.125,1.5H2.25V.281A.281.281,0,0,1,2.531,0h.938A.281.281,0,0,1,3.75.281V1.5h3V.281A.281.281,0,0,1,7.031,0h.938A.281.281,0,0,1,8.25.281V1.5H9.375A1.125,1.125,0,0,1,10.5,2.625v.844A.281.281,0,0,1,10.219,3.75ZM.281,4.5h9.938a.281.281,0,0,1,.281.281v6.094A1.125,1.125,0,0,1,9.375,12H1.125A1.125,1.125,0,0,1,0,10.875V4.781A.281.281,0,0,1,.281,4.5ZM8.093,6.749l-.66-.666a.281.281,0,0,0-.4,0L4.55,8.547,3.472,7.46a.281.281,0,0,0-.4,0l-.666.66a.281.281,0,0,0,0,.4l1.936,1.952a.281.281,0,0,0,.4,0l3.35-3.324a.281.281,0,0,0,0-.4Z" fill="#282828"/>
</svg>
