<svg xmlns="http://www.w3.org/2000/svg" width="28.516" height="25.35" viewBox="0 0 28.516 25.35">
  <path id="Icon_awesome-file-export" data-name="Icon awesome-file-export" d="M19.012,6.035a1.184,1.184,0,0,0-.347-.837L13.819.347A1.187,1.187,0,0,0,12.977,0h-.3V6.337h6.337Zm9.259,9.214-4.738-4.773a.794.794,0,0,0-1.357.559v3.223H19.007v3.169h3.169v3.228a.794.794,0,0,0,1.357.559l4.738-4.778A.843.843,0,0,0,28.271,15.249ZM9.506,16.636V15.051a.8.8,0,0,1,.792-.792h8.714V7.922H12.279A1.192,1.192,0,0,1,11.09,6.733V0h-9.9A1.185,1.185,0,0,0,0,1.188V24.161A1.185,1.185,0,0,0,1.188,25.35H17.824a1.185,1.185,0,0,0,1.188-1.188V17.428H10.3A.8.8,0,0,1,9.506,16.636Z" fill="#0081c8"/>
</svg>
