<svg xmlns="http://www.w3.org/2000/svg" xmlns:xlink="http://www.w3.org/1999/xlink" width="24" height="24" viewBox="0 0 24 24">
  <defs>
    <clipPath id="clip-Web_1920_6">
      <rect width="24" height="24"/>
    </clipPath>
  </defs>
  <g id="Web_1920_6" data-name="Web 1920 – 6" clip-path="url(#clip-Web_1920_6)">
    <g id="Group_499" data-name="Group 499" transform="translate(4 5)">
      <path id="Path_5102" data-name="Path 5102" d="M12.3,10.957a2.145,2.145,0,1,0-2.145-2.145A2.145,2.145,0,0,0,12.3,10.957Zm0,1.073a2,2,0,0,0-2.291,2.145l-.661.625s1.807-1.552,2.952-1.552,2.583,1.32,3.155,1.552-.864-.625-.864-.625A2,2,0,0,0,12.3,12.03Z" transform="translate(-4.242 -6.667)" fill="#fff"/>
      <g id="Group_498" data-name="Group 498" transform="translate(0 3.978)">
        <g id="Group_494" data-name="Group 494">
          <g id="Group_488" data-name="Group 488">
            <ellipse id="Ellipse_61" data-name="Ellipse 61" cx="2.166" cy="2.166" rx="2.166" ry="2.166" transform="translate(2.166)" fill="#fff"/>
            <path id="Path_5094" data-name="Path 5094" d="M8.028,21.677c-.119-.005-.238-.011-.363-.011a6.973,6.973,0,0,0-3.579.986,1.582,1.582,0,0,0-.753,1.37v1.435H8.348a3.771,3.771,0,0,1-.682-2.166A3.83,3.83,0,0,1,8.028,21.677Z" transform="translate(-3.333 -16.793)" fill="#fff"/>
            <path id="Path_5095" data-name="Path 5095" d="M24.93,21.041A2.349,2.349,0,0,0,24.9,20.7l.617-.547-.542-.937-.785.265a1.975,1.975,0,0,0-.585-.341l-.162-.807H22.357l-.162.807a1.975,1.975,0,0,0-.585.341l-.785-.265-.542.937.617.547a1.807,1.807,0,0,0,0,.682l-.617.547.542.937.785-.265a1.975,1.975,0,0,0,.585.341l.162.807H23.44l.162-.807a1.975,1.975,0,0,0,.585-.341l.785.265.542-.937-.617-.547A2.349,2.349,0,0,0,24.93,21.041ZM22.9,22.124a1.083,1.083,0,1,1,1.083-1.083A1.086,1.086,0,0,1,22.9,22.124Z" transform="translate(-14.776 -14.543)" fill="#fff"/>
          </g>
        </g>
        <g id="Group_495" data-name="Group 495" transform="translate(5.369)">
          <g id="Group_488-2" data-name="Group 488">
            <ellipse id="Ellipse_61-2" data-name="Ellipse 61" cx="2.166" cy="2.166" rx="2.166" ry="2.166" transform="translate(4.24)" fill="#fff"/>
            <path id="Path_5094-2" data-name="Path 5094" d="M3.653,21.677c.119-.005.238-.011.363-.011a6.973,6.973,0,0,1,3.579.986,1.582,1.582,0,0,1,.753,1.37v1.435H3.333a3.771,3.771,0,0,0,.682-2.166A3.83,3.83,0,0,0,3.653,21.677Z" transform="translate(2.391 -16.793)" fill="#fff"/>
            <path id="Path_5095-2" data-name="Path 5095" d="M20.868,21.041A2.349,2.349,0,0,1,20.9,20.7l-.617-.547.542-.937.785.265a1.975,1.975,0,0,1,.585-.341l.162-.807H23.44l.162.807a1.975,1.975,0,0,1,.585.341l.785-.265.542.937L24.9,20.7a1.807,1.807,0,0,1,0,.682l.617.547-.542.937-.785-.265a1.975,1.975,0,0,1-.585.341l-.162.807H22.357l-.162-.807a1.975,1.975,0,0,1-.585-.341l-.785.265-.542-.937.617-.547A2.349,2.349,0,0,1,20.868,21.041ZM22.9,22.124a1.083,1.083,0,1,0-1.083-1.083A1.086,1.086,0,0,0,22.9,22.124Z" transform="translate(-20.283 -14.543)" fill="#fff"/>
          </g>
        </g>
      </g>
    </g>
  </g>
</svg>
