<svg xmlns="http://www.w3.org/2000/svg" width="21.941" height="17.958" viewBox="0 0 21.941 17.958">
  <g id="Group_499" data-name="Group 499" transform="translate(0 0)">
    <path id="Path_5102" data-name="Path 5102" d="M13.365,12.511a2.922,2.922,0,1,0-2.922-2.922A2.921,2.921,0,0,0,13.365,12.511Zm0,1.461c-1.951,0-3.121.979-3.121,2.922l-.9.851s2.461-2.114,4.021-2.114,3.518,1.8,4.3,2.114-1.177-.851-1.177-.851C16.486,14.951,15.316,13.972,13.365,13.972Z" transform="translate(-2.395 -6.667)" fill="#fff"/>
    <g id="Group_498" data-name="Group 498" transform="translate(0 5.419)">
      <g id="Group_494" data-name="Group 494">
        <g id="Group_488" data-name="Group 488">
          <ellipse id="Ellipse_61" data-name="Ellipse 61" cx="2.951" cy="2.951" rx="2.951" ry="2.951" transform="translate(2.951)" fill="#fff"/>
          <path id="Path_5094" data-name="Path 5094" d="M9.729,21.681c-.162-.007-.325-.015-.494-.015a9.5,9.5,0,0,0-4.876,1.342,2.156,2.156,0,0,0-1.025,1.866V26.83h6.83a5.136,5.136,0,0,1-.929-2.951A5.217,5.217,0,0,1,9.729,21.681Z" transform="translate(-3.333 -15.028)" fill="#fff"/>
          <path id="Path_5095" data-name="Path 5095" d="M26.612,22.021a3.2,3.2,0,0,0-.044-.465l.841-.745-.738-1.276L25.6,19.9a2.69,2.69,0,0,0-.8-.465l-.221-1.1H23.108l-.221,1.1a2.69,2.69,0,0,0-.8.465l-1.07-.361-.738,1.276.841.745a2.462,2.462,0,0,0,0,.929l-.841.745.738,1.276,1.07-.361a2.69,2.69,0,0,0,.8.465l.221,1.1h1.475l.221-1.1a2.69,2.69,0,0,0,.8-.465l1.07.361.738-1.276-.841-.745A3.2,3.2,0,0,0,26.612,22.021ZM23.846,23.5a1.475,1.475,0,1,1,1.475-1.475A1.48,1.48,0,0,1,23.846,23.5Z" transform="translate(-12.782 -13.17)" fill="#fff"/>
        </g>
      </g>
      <g id="Group_495" data-name="Group 495" transform="translate(7.314)">
        <g id="Group_488-2" data-name="Group 488">
          <ellipse id="Ellipse_61-2" data-name="Ellipse 61" cx="2.951" cy="2.951" rx="2.951" ry="2.951" transform="translate(5.776)" fill="#fff"/>
          <path id="Path_5094-2" data-name="Path 5094" d="M3.769,21.681c.162-.007.325-.015.494-.015a9.5,9.5,0,0,1,4.876,1.342,2.156,2.156,0,0,1,1.025,1.866V26.83H3.333a5.136,5.136,0,0,0,.929-2.951A5.217,5.217,0,0,0,3.769,21.681Z" transform="translate(4.463 -15.028)" fill="#fff"/>
          <path id="Path_5095-2" data-name="Path 5095" d="M21.08,22.021a3.2,3.2,0,0,1,.044-.465l-.841-.745.738-1.276,1.07.361a2.69,2.69,0,0,1,.8-.465l.221-1.1h1.475l.221,1.1a2.69,2.69,0,0,1,.8.465l1.07-.361.738,1.276-.841.745a2.462,2.462,0,0,1,0,.929l.841.745-.738,1.276-1.07-.361a2.69,2.69,0,0,1-.8.465l-.221,1.1H23.108l-.221-1.1a2.69,2.69,0,0,1-.8-.465l-1.07.361-.738-1.276.841-.745A3.2,3.2,0,0,1,21.08,22.021ZM23.846,23.5a1.475,1.475,0,1,0-1.475-1.475A1.48,1.48,0,0,0,23.846,23.5Z" transform="translate(-20.283 -13.17)" fill="#fff"/>
        </g>
      </g>
    </g>
  </g>
</svg>
