<svg xmlns="http://www.w3.org/2000/svg" width="26" height="28" viewBox="0 0 26 28">
  <g id="Group_518" data-name="Group 518" transform="translate(-5.5 -7)">
    <g id="manage_accounts_black_24dp" transform="translate(5.5 7)">
      <g id="Group_487" data-name="Group 487">
        <path id="Path_5093" data-name="Path 5093" d="M26,0H0V26H26Z" fill="none"/>
      </g>
      <g id="Group_489" data-name="Group 489" transform="translate(4.5 11)">
        <g id="Group_488" data-name="Group 488" transform="translate(0 0)">
          <ellipse id="Ellipse_61" data-name="Ellipse 61" cx="4" cy="4" rx="4" ry="4" transform="translate(4)" fill="#fff"/>
          <path id="Path_5094" data-name="Path 5094" d="M12,21.687c-.22-.01-.44-.02-.67-.02a12.876,12.876,0,0,0-6.61,1.82,2.922,2.922,0,0,0-1.39,2.53v2.65h9.26a6.963,6.963,0,0,1-1.26-4A7.072,7.072,0,0,1,12,21.687Z" transform="translate(-3.333 -12.667)" fill="#fff"/>
          <path id="Path_5095" data-name="Path 5095" d="M28.863,23.333a4.338,4.338,0,0,0-.06-.63l1.14-1.01-1-1.73-1.45.49a3.647,3.647,0,0,0-1.08-.63l-.3-1.49h-2l-.3,1.49a3.646,3.646,0,0,0-1.08.63l-1.45-.49-1,1.73,1.14,1.01a3.337,3.337,0,0,0,0,1.26l-1.14,1.01,1,1.73,1.45-.49a3.647,3.647,0,0,0,1.08.63l.3,1.49h2l.3-1.49a3.647,3.647,0,0,0,1.08-.63l1.45.49,1-1.73-1.14-1.01A4.338,4.338,0,0,0,28.863,23.333Zm-3.75,2a2,2,0,1,1,2-2A2.006,2.006,0,0,1,25.113,25.333Z" transform="translate(-10.113 -11.333)" fill="#fff"/>
        </g>
      </g>
    </g>
  </g>
</svg>
