<svg xmlns="http://www.w3.org/2000/svg" width="21" height="26.877" viewBox="0 0 21 26.877">
  <g id="db6e7e2b449fafc55decaa715c08590e" transform="translate(0 0)">
    <g id="Group_500" data-name="Group 500" transform="translate(0 0)">
      <path id="Path_5109" data-name="Path 5109" d="M136.1,11.681h-4.2a2.1,2.1,0,0,0-1.678-.839h-1.07a1.67,1.67,0,0,0-2.9,0h-1.07a2.1,2.1,0,0,0-1.678.839h-4.2a2.1,2.1,0,0,0-2.1,2.1v21a2.1,2.1,0,0,0,2.1,2.1h16.8a2.1,2.1,0,0,0,2.1-2.1v-21A2.1,2.1,0,0,0,136.1,11.681Zm-12.18,1.259a1.261,1.261,0,0,1,1.259-1.259h1.338a.417.417,0,0,0,.395-.28.833.833,0,0,1,1.574,0,.42.42,0,0,0,.395.28h1.338a1.261,1.261,0,0,1,1.259,1.259V14.2h-7.559Zm13.439,21.836a1.261,1.261,0,0,1-1.259,1.259H119.3a1.261,1.261,0,0,1-1.259-1.259v-21A1.261,1.261,0,0,1,119.3,12.52h3.823a2.134,2.134,0,0,0-.041.42v1.681a.42.42,0,0,0,.42.42h8.4a.42.42,0,0,0,.42-.42V12.94a2.114,2.114,0,0,0-.041-.42H136.1a1.261,1.261,0,0,1,1.259,1.259v21Z" transform="translate(-117.2 -10)" fill="#fff"/>
      <path id="Path_5110" data-name="Path 5110" d="M195.718,132.5H193.2a.42.42,0,0,0,0,.839h2.1V153.5H179.339V133.339h2.1a.42.42,0,1,0,0-.839h-2.52a.42.42,0,0,0-.42.42v21a.42.42,0,0,0,.42.42h16.8a.42.42,0,0,0,.42-.42v-21A.421.421,0,0,0,195.718,132.5Z" transform="translate(-176.819 -129.14)" fill="#fff"/>
      <path id="Path_5111" data-name="Path 5111" d="M485.12,71.3a.415.415,0,0,0-.3.123.42.42,0,0,0-.123.3.415.415,0,0,0,.123.3.42.42,0,0,0,.3.123.415.415,0,0,0,.3-.123.42.42,0,0,0,.123-.3.421.421,0,0,0-.42-.42Z" transform="translate(-474.621 -69.619)" fill="#fff"/>
      <path id="Path_5112" data-name="Path 5112" d="M255.123,332.465a.42.42,0,0,0,0,.6l1.259,1.259a.417.417,0,0,0,.592,0l2.1-2.1a.421.421,0,0,0-.6-.6l-1.8,1.8-.963-.963A.42.42,0,0,0,255.123,332.465Z" transform="translate(-251.221 -322.683)" fill="#fff"/>
      <path id="Path_5113" data-name="Path 5113" d="M258.978,500.123a.42.42,0,0,0-.6,0l-1.8,1.8-.963-.963a.421.421,0,0,0-.6.6l1.259,1.259a.417.417,0,0,0,.592,0l2.1-2.1A.415.415,0,0,0,258.978,500.123Z" transform="translate(-251.123 -486.561)" fill="#fff"/>
      <path id="Path_5114" data-name="Path 5114" d="M258.483,668.511l-1.8,1.8-.963-.963a.421.421,0,0,0-.6.6l1.259,1.259a.417.417,0,0,0,.592,0l2.1-2.1a.419.419,0,1,0-.592-.592Z" transform="translate(-251.221 -650.331)" fill="#fff"/>
      <path id="Path_5115" data-name="Path 5115" d="M454.52,363.039h7.139a.42.42,0,1,0,0-.839H454.52a.42.42,0,1,0,0,.839Z" transform="translate(-444.86 -352.541)" fill="#fff"/>
      <path id="Path_5116" data-name="Path 5116" d="M454.52,531.539h7.139a.42.42,0,1,0,0-.839H454.52a.42.42,0,1,0,0,.839Z" transform="translate(-444.86 -516.419)" fill="#fff"/>
    </g>
    <path id="Path_5118" data-name="Path 5118" d="M27.934,22.792a3.868,3.868,0,0,0-.053-.562l1.017-.9-.892-1.543-1.293.437a3.252,3.252,0,0,0-.963-.562l-.267-1.329H23.7l-.267,1.329a3.252,3.252,0,0,0-.963.562l-1.293-.437-.892,1.543,1.017.9a2.976,2.976,0,0,0,0,1.123l-1.017.9.892,1.543,1.293-.437a3.251,3.251,0,0,0,.963.562L23.7,27.25h1.783l.267-1.329a3.252,3.252,0,0,0,.963-.562l1.293.437.892-1.543-1.017-.9A3.868,3.868,0,0,0,27.934,22.792ZM24.59,24.575a1.783,1.783,0,1,1,1.783-1.783A1.789,1.789,0,0,1,24.59,24.575Z" transform="translate(-11.217 -3.021)" fill="#fff"/>
  </g>
</svg>
