<svg xmlns="http://www.w3.org/2000/svg" xmlns:xlink="http://www.w3.org/1999/xlink" width="48" height="48" viewBox="0 0 48 48">
  <defs>
    <clipPath id="clip-Manage_Mandates">
      <rect width="48" height="48"/>
    </clipPath>
  </defs>
  <g id="Manage_Mandates" data-name="Manage Mandates" clip-path="url(#clip-Manage_Mandates)">
    <g id="db6e7e2b449fafc55decaa715c08590e" transform="translate(7.247 2.559)">
      <g id="Group_500" data-name="Group 500" transform="translate(0 0)">
        <path id="Path_5109" data-name="Path 5109" d="M147.353,12.682h-6.7a3.344,3.344,0,0,0-2.678-1.339h-1.707a2.664,2.664,0,0,0-4.625,0h-1.707a3.344,3.344,0,0,0-2.678,1.339h-6.7A3.355,3.355,0,0,0,117.2,16.03v33.5a3.355,3.355,0,0,0,3.352,3.352h26.8a3.355,3.355,0,0,0,3.352-3.352V16.03A3.357,3.357,0,0,0,147.353,12.682Zm-19.433,2.008a2.011,2.011,0,0,1,2.008-2.008h2.135a.666.666,0,0,0,.63-.446,1.33,1.33,0,0,1,2.512,0,.67.67,0,0,0,.63.446h2.135a2.011,2.011,0,0,1,2.008,2.008V16.7h-12.06Zm21.441,34.84a2.011,2.011,0,0,1-2.008,2.008h-26.8a2.011,2.011,0,0,1-2.008-2.008V16.03a2.011,2.011,0,0,1,2.008-2.008h6.1a3.405,3.405,0,0,0-.066.669v2.682a.669.669,0,0,0,.669.669h13.4a.669.669,0,0,0,.669-.669V14.691a3.374,3.374,0,0,0-.066-.669h6.1a2.011,2.011,0,0,1,2.008,2.008v33.5Z" transform="translate(-117.2 -10)" fill="#fff"/>
        <path id="Path_5110" data-name="Path 5110" d="M205.971,132.5H201.95a.669.669,0,1,0,0,1.339H205.3V166H179.839V133.839h3.352a.669.669,0,0,0,0-1.339H179.17a.669.669,0,0,0-.669.669v33.5a.669.669,0,0,0,.669.669h26.8a.669.669,0,0,0,.669-.669v-33.5A.672.672,0,0,0,205.971,132.5Z" transform="translate(-175.818 -127.14)" fill="#fff"/>
        <path id="Path_5111" data-name="Path 5111" d="M485.369,71.3a.662.662,0,0,0-.473.2.669.669,0,0,0-.2.473.662.662,0,0,0,.2.473.669.669,0,0,0,.473.2.662.662,0,0,0,.473-.2.67.67,0,0,0,.2-.473.672.672,0,0,0-.67-.669Z" transform="translate(-468.619 -68.618)" fill="#fff"/>
        <path id="Path_5112" data-name="Path 5112" d="M255.2,333.04a.671.671,0,0,0,0,.95L257.205,336a.665.665,0,0,0,.945,0l3.352-3.352a.671.671,0,1,0-.949-.95l-2.875,2.875-1.536-1.536A.67.67,0,0,0,255.2,333.04Z" transform="translate(-248.97 -317.432)" fill="#fff"/>
        <path id="Path_5113" data-name="Path 5113" d="M261.407,500.2a.671.671,0,0,0-.949,0l-2.875,2.875-1.536-1.536a.671.671,0,1,0-.949.949l2.008,2.008a.665.665,0,0,0,.945,0l3.352-3.352A.662.662,0,0,0,261.407,500.2Z" transform="translate(-248.875 -478.559)" fill="#fff"/>
        <path id="Path_5114" data-name="Path 5114" d="M260.557,668.585l-2.875,2.875-1.536-1.536a.671.671,0,0,0-.95.949l2.009,2.009a.666.666,0,0,0,.945,0l3.352-3.352a.668.668,0,1,0-.945-.945Z" transform="translate(-248.97 -639.578)" fill="#fff"/>
        <path id="Path_5115" data-name="Path 5115" d="M454.77,363.539h11.39a.669.669,0,0,0,0-1.339H454.77a.669.669,0,1,0,0,1.339Z" transform="translate(-439.358 -346.789)" fill="#fff"/>
        <path id="Path_5116" data-name="Path 5116" d="M454.77,532.039h11.39a.669.669,0,0,0,0-1.339H454.77a.669.669,0,1,0,0,1.339Z" transform="translate(-439.358 -507.915)" fill="#fff"/>
      </g>
      <path id="Path_5118" data-name="Path 5118" d="M32.49,25.447a6.171,6.171,0,0,0-.085-.9l1.622-1.437L32.6,20.652l-2.063.7a5.188,5.188,0,0,0-1.536-.9l-.427-2.12H25.732l-.427,2.12a5.188,5.188,0,0,0-1.536.9l-2.063-.7-1.423,2.461,1.622,1.437a6.171,6.171,0,0,0-.085.9,6.17,6.17,0,0,0,.085.9L20.283,27.78l1.423,2.461,2.063-.7a5.188,5.188,0,0,0,1.536.9l.427,2.12h2.845L29,30.44a5.188,5.188,0,0,0,1.536-.9l2.063.7,1.423-2.461L32.4,26.343A6.171,6.171,0,0,0,32.49,25.447Zm-5.335,2.845A2.845,2.845,0,1,1,30,25.447,2.854,2.854,0,0,1,27.155,28.292Z" transform="translate(-5.818 6.098)" fill="#fff"/>
    </g>
  </g>
</svg>
