<svg xmlns="http://www.w3.org/2000/svg" width="24" height="19.644" viewBox="0 0 24 19.644">
  <g id="Group_499" data-name="Group 499" transform="translate(0 0)">
    <path id="Path_5102" data-name="Path 5102" d="M13.906,13.3a3.315,3.315,0,1,0-3.315-3.315A3.314,3.314,0,0,0,13.906,13.3Zm0,1.658c-2.213,0-3.54,1.111-3.54,3.315l-1.022.966s2.792-2.4,4.562-2.4,3.991,2.04,4.876,2.4-1.336-.966-1.336-.966C17.446,16.065,16.119,14.954,13.906,14.954Z" transform="translate(-1.921 -6.667)" fill="#fff"/>
    <g id="Group_498" data-name="Group 498" transform="translate(0 6.147)">
      <g id="Group_494" data-name="Group 494">
        <g id="Group_488" data-name="Group 488">
          <ellipse id="Ellipse_61" data-name="Ellipse 61" cx="3.227" cy="3.176" rx="3.227" ry="3.176" transform="translate(3.227)" fill="#fff"/>
          <path id="Path_5094" data-name="Path 5094" d="M10.329,21.683c-.178-.008-.355-.016-.541-.016a10.517,10.517,0,0,0-5.333,1.445A2.312,2.312,0,0,0,3.333,25.12v2.1H10.8a5.467,5.467,0,0,1-1.017-3.176A5.54,5.54,0,0,1,10.329,21.683Z" transform="translate(-3.333 -14.521)" fill="#fff"/>
          <path id="Path_5095" data-name="Path 5095" d="M27.206,22.3a3.39,3.39,0,0,0-.048-.5l.92-.8-.807-1.373-1.17.389a2.953,2.953,0,0,0-.871-.5l-.242-1.183H23.374l-.242,1.183a2.953,2.953,0,0,0-.871.5l-1.17-.389L20.283,21l.92.8a2.608,2.608,0,0,0,0,1l-.92.8.807,1.373,1.17-.389a2.954,2.954,0,0,0,.871.5l.242,1.183h1.614l.242-1.183a2.954,2.954,0,0,0,.871-.5l1.17.389.807-1.373-.92-.8A3.39,3.39,0,0,0,27.206,22.3ZM24.18,23.891A1.588,1.588,0,1,1,25.794,22.3,1.606,1.606,0,0,1,24.18,23.891Z" transform="translate(-12.078 -12.776)" fill="#fff"/>
        </g>
      </g>
      <g id="Group_495" data-name="Group 495" transform="translate(8)">
        <g id="Group_488-2" data-name="Group 488">
          <ellipse id="Ellipse_61-2" data-name="Ellipse 61" cx="3.227" cy="3.176" rx="3.227" ry="3.176" transform="translate(6.318)" fill="#fff"/>
          <path id="Path_5094-2" data-name="Path 5094" d="M3.809,21.683c.178-.008.355-.016.541-.016a10.517,10.517,0,0,1,5.333,1.445A2.312,2.312,0,0,1,10.8,25.12v2.1H3.333A5.467,5.467,0,0,0,4.35,24.048,5.54,5.54,0,0,0,3.809,21.683Z" transform="translate(5.195 -14.521)" fill="#fff"/>
          <path id="Path_5095-2" data-name="Path 5095" d="M21.155,22.3a3.39,3.39,0,0,1,.048-.5l-.92-.8.807-1.373,1.17.389a2.954,2.954,0,0,1,.871-.5l.242-1.183h1.614l.242,1.183a2.954,2.954,0,0,1,.871.5l1.17-.389L28.078,21l-.92.8a2.608,2.608,0,0,1,0,1l.92.8-.807,1.373-1.17-.389a2.954,2.954,0,0,1-.871.5l-.242,1.183H23.374l-.242-1.183a2.954,2.954,0,0,1-.871-.5l-1.17.389L20.283,23.6l.92-.8A3.39,3.39,0,0,1,21.155,22.3Zm3.026,1.588A1.588,1.588,0,1,0,22.567,22.3,1.606,1.606,0,0,0,24.18,23.891Z" transform="translate(-20.283 -12.776)" fill="#fff"/>
        </g>
      </g>
    </g>
  </g>
</svg>
