<svg xmlns="http://www.w3.org/2000/svg" width="21" height="21.008" viewBox="0 0 21 21.008">
  <g id="class-file-icon" transform="translate(0 -4)">
    <g id="_39b222fe11cad6a40a745208ae145b39" data-name="39b222fe11cad6a40a745208ae145b39" transform="translate(0 4)">
      <path id="Path_5107" data-name="Path 5107" d="M22.732,18.741a7.032,7.032,0,0,1,2.752-.557c.094,0,.189,0,.283,0a7.092,7.092,0,0,0,.336-3.769,5.433,5.433,0,0,0-6.29-4.451c-2.955.525-5.447,2.822-4.922,5.8a9.585,9.585,0,0,0,.791,2.374l-5.364,7.74a1.773,1.773,0,0,0-.251,1.144l.234,1.324c-.221-1.275.062.459.234.454l1.768.024a1.655,1.655,0,0,0,.956-.641l2.122-3.317.021-.021L17.254,25l2.477-3.885c.009,0,.017,0,.024,0a7.158,7.158,0,0,1,2.977-2.379ZM11.477,26.7l-.264.111.028-.287,5.139-7.462.309.287Zm7.811-13.728a2.544,2.544,0,0,1,3.568-.636,2.609,2.609,0,0,1,.632,3.609c-.812,1.168-1.642.345-2.8-.476S18.476,14.146,19.288,12.974Z" transform="translate(-10.051 -9.884)" fill="#fff"/>
      <path id="Path_5108" data-name="Path 5108" d="M469.636,464.2a5.636,5.636,0,1,0,5.636,5.636A5.635,5.635,0,0,0,469.636,464.2Zm3.257,7.948c0,.84-1.612,1.033-3.124,1.033s-3.146-.193-3.146-1.033v-.234c0-.619,1.116-1.247,2.064-1.588.071-.024.4-.206.214-.686a3.03,3.03,0,0,1-.825-2.027,1.691,1.691,0,1,1,3.377,0,3.057,3.057,0,0,1-.825,2.023h0c-.18.546.107.677.152.69,1,.328,2.117.951,2.117,1.588l-.009.234Z" transform="translate(-454.272 -454.464)" fill="#fff"/>
    </g>
  </g>
</svg>
