<svg xmlns="http://www.w3.org/2000/svg" width="26.629" height="26.629" viewBox="0 0 26.629 26.629">
  <path id="Icon_ionic-md-settings" data-name="Icon ionic-md-settings" d="M26.8,18.021a8.327,8.327,0,0,0,.068-1.331c0-.466-.068-.865-.068-1.331l2.859-2.2A.611.611,0,0,0,29.8,12.3L27.073,7.7a.663.663,0,0,0-.817-.267l-3.4,1.332a9.91,9.91,0,0,0-2.315-1.332L20.06,3.908a.73.73,0,0,0-.681-.532H13.932a.73.73,0,0,0-.681.532l-.545,3.528a11.531,11.531,0,0,0-2.315,1.332l-3.4-1.332a.638.638,0,0,0-.817.267L3.445,12.3a.8.8,0,0,0,.136.865l2.928,2.2c0,.466-.068.865-.068,1.331s.068.865.068,1.331l-2.859,2.2a.612.612,0,0,0-.136.865l2.724,4.594a.663.663,0,0,0,.817.267l3.4-1.332a9.909,9.909,0,0,0,2.315,1.332l.545,3.528A.66.66,0,0,0,14,30h5.447a.73.73,0,0,0,.681-.532l.545-3.528a11.524,11.524,0,0,0,2.315-1.332l3.4,1.332a.638.638,0,0,0,.817-.267l2.724-4.594a.8.8,0,0,0-.136-.865ZM16.655,21.35a4.661,4.661,0,1,1,4.766-4.66A4.685,4.685,0,0,1,16.655,21.35Z" transform="translate(-3.375 -3.375)" fill="#0081c8"/>
</svg>
