<svg xmlns="http://www.w3.org/2000/svg" xmlns:xlink="http://www.w3.org/1999/xlink" width="82" height="82" viewBox="0 0 82 82">
  <defs>
    <filter id="Rectangle_17187" x="0" y="0" width="82" height="82" filterUnits="userSpaceOnUse">
      <feOffset dx="-2" dy="2" input="SourceAlpha"/>
      <feGaussianBlur stdDeviation="3" result="blur"/>
      <feFlood flood-opacity="0.161"/>
      <feComposite operator="in" in2="blur"/>
      <feComposite in="SourceGraphic"/>
    </filter>
  </defs>
  <g id="Group_3874" data-name="Group 3874" transform="translate(-11 -167)">
    <g transform="matrix(1, 0, 0, 1, 11, 167)" filter="url(#Rectangle_17187)">
      <rect id="Rectangle_17187-2" data-name="Rectangle 17187" width="64" height="64" rx="12" transform="translate(11 7)" fill="#0081c8"/>
    </g>
    <g id="stretching-exercises" transform="translate(40 187.936)">
      <g id="Group_2969" data-name="Group 2969" transform="translate(0 0)">
        <path id="Path_5024" data-name="Path 5024" d="M34.666.009a16.979,16.979,0,0,0-13.6,8.21,65.368,65.368,0,0,0-6.735,12.812,102.528,102.528,0,0,0-6.085,14.7c-.994,2.955,3.468,4.883,4.468,1.915a116.7,116.7,0,0,1,4.344-11.152c1.647,3.686,3.321,7.361,5.118,10.977,1.393,2.807,5.584.345,4.2-2.452-1.85-3.723-3.569-7.5-5.262-11.3.022-.073.049-.145.071-.218a2,2,0,0,0,.936.04l7.775-1.458a1.969,1.969,0,0,0,1.357-2.39c-.524-2.908-2.18-4.931-4.242-6.845a6.81,6.81,0,0,0-2.46-2.877c2.3-3.713,6.047-5.728,10.927-6.158C37.965,3.593,37.135-.208,34.666.009Zm-9.44,16.528a9.049,9.049,0,0,1,1.6,2.18l-3.762.705A21.276,21.276,0,0,1,25.226,16.537Z" transform="translate(-8.102 0)" fill="#fff"/>
        <circle id="Ellipse_3" data-name="Ellipse 3" cx="3.337" cy="3.337" r="3.337" transform="translate(19.151 6.553)" fill="#fff"/>
      </g>
    </g>
  </g>
</svg>
