<svg xmlns="http://www.w3.org/2000/svg" xmlns:xlink="http://www.w3.org/1999/xlink" width="151.257" height="107.133" viewBox="0 0 151.257 107.133">
  <defs>
    <linearGradient id="linear-gradient" x1="-0.114" y1="0.583" x2="1.042" y2="0.702" gradientUnits="objectBoundingBox">
      <stop offset="0" stop-color="#e7f1ff"/>
      <stop offset="1" stop-color="#e7f1ff" stop-opacity="0"/>
    </linearGradient>
  </defs>
  <g id="Group_3776" data-name="Group 3776" transform="translate(0 0)">
    <path id="Path_5264" data-name="Path 5264" d="M3.812,22.5c6.957,3.523,22.861,10.651,38.814,7.4s15.433-.916,35.593,1.253,46.675-2.963,47.552-3.774,9.564-21-.778-20.188S97.2,5.974,86.326,3.807,61.86-.728,45.223.211s-22.238,2.058-28.9,2.058S.776-2.7.075,3.807,3.812,22.5,3.812,22.5Z" transform="matrix(-0.996, 0.087, -0.087, -0.996, 144.216, 88.759)" fill="url(#linear-gradient)"/>
    <g id="Group_3630" data-name="Group 3630" transform="translate(149.807 88.305) rotate(177)">
      <path id="Path_327" data-name="Path 327" d="M9.2,26.176c-.164.1-2.37.7-3.129-.29S1.39,3.234,1.39,3.234A7.621,7.621,0,0,1,.065,2.477c-.213-.237,0-.994,2.248-1.87s8.736-.971,12.311.852,2.794,2.083,2.747,2.249a16.539,16.539,0,0,1-1.35,1.444L11.245,20.028S9.367,26.075,9.2,26.176Z" transform="translate(0 0)" fill="#fa9a21"/>
      <path id="Subtraction_7" data-name="Subtraction 7" d="M6.964,0A14.434,14.434,0,0,0,2.313.607a7.333,7.333,0,0,0-1.745.906A1.34,1.34,0,0,0,.012,2.2a.3.3,0,0,0,.052.28,7.677,7.677,0,0,0,1.326.758l0,.015a4.933,4.933,0,0,1,.886-.713,6.307,6.307,0,0,1,1.642-.286c.967-.093,2.1-.144,3.193-.144,1.638,0,4.612.121,6.131.932a9.246,9.246,0,0,1,2.776,2.112l.006-.006a15.307,15.307,0,0,0,1.342-1.437.217.217,0,0,1,.035-.059.266.266,0,0,0,.062-.238c-.041-.168-.237-.38-.6-.648a17.31,17.31,0,0,0-2.241-1.3A12.982,12.982,0,0,0,11.007.338,23.772,23.772,0,0,0,6.965,0h0Z" transform="translate(0 0)" fill="#f28f12"/>
      <path id="Path_329" data-name="Path 329" d="M0,0,3.658.211l-2.016,16.6s-.663.51-.99-.174S0,0,0,0Z" transform="translate(6.409 4.223)" fill="#f4f5f9"/>
      <path id="Path_321" data-name="Path 321" d="M2.621,14.814C2.387,14.134.088,1.354.042.768S-.052.135.135.017s.868.4.868.4Z" transform="translate(2.638 6.246)" fill="#949494"/>
      <path id="Path_330" data-name="Path 330" d="M0,16.442C-.043,15.963,2.275,6.258,2.275,6.258L3.5,0l1.97.862L.422,16.634S.044,16.921,0,16.442Z" transform="translate(9.811 5.049)" fill="#f4f5f9"/>
      <path id="Path_328" data-name="Path 328" d="M3.166,17.095,0,.61,1.43,0Z" transform="translate(2.094 4.223)" fill="#f4f5f9"/>
    </g>
    <g id="Group_3632" data-name="Group 3632" transform="translate(17.682 88.361) rotate(177)">
      <path id="Path_327-2" data-name="Path 327" d="M8.639,24.572c-.154.094-2.225.661-2.937-.272S1.3,3.036,1.3,3.036A7.152,7.152,0,0,1,.061,2.325C-.14,2.1.06,1.392,2.172.569s8.2-.911,11.557.8,2.623,1.956,2.578,2.111A15.486,15.486,0,0,1,15.04,4.836L10.556,18.8S8.793,24.478,8.639,24.572Z" transform="translate(0 0)" fill="#fa9a21"/>
      <path id="Subtraction_7-2" data-name="Subtraction 7" d="M6.538,0A13.55,13.55,0,0,0,2.172.569a6.884,6.884,0,0,0-1.638.85,1.258,1.258,0,0,0-.522.643.284.284,0,0,0,.049.263A7.206,7.206,0,0,0,1.3,3.036l0,.014a4.631,4.631,0,0,1,.832-.67,5.921,5.921,0,0,1,1.542-.268c.908-.087,1.972-.136,3-.136,1.538,0,4.33.114,5.756.875a8.68,8.68,0,0,1,2.606,1.983l.006-.005a14.369,14.369,0,0,0,1.26-1.349.2.2,0,0,1,.033-.055A.25.25,0,0,0,16.4,3.2c-.038-.158-.223-.357-.564-.609a16.25,16.25,0,0,0-2.1-1.224,12.187,12.187,0,0,0-3.4-1.052A22.316,22.316,0,0,0,6.538,0h0Z" transform="translate(0 0)" fill="#f28f12"/>
      <path id="Path_329-2" data-name="Path 329" d="M0,0,3.434.2,1.541,15.784s-.622.479-.93-.163S0,0,0,0Z" transform="translate(6.016 3.964)" fill="#f4f5f9"/>
      <path id="Path_321-2" data-name="Path 321" d="M2.46,13.907C2.241,13.268.083,1.271.04.721S-.049.126.127.016.942.39.942.39Z" transform="translate(2.477 5.863)" fill="#949494"/>
      <path id="Path_330-2" data-name="Path 330" d="M0,15.435c-.04-.449,2.136-9.56,2.136-9.56L3.282,0l1.85.809L.4,15.615S.042,15.885,0,15.435Z" transform="translate(9.21 4.74)" fill="#f4f5f9"/>
      <path id="Path_328-2" data-name="Path 328" d="M2.972,16.048,0,.572,1.343,0Z" transform="translate(1.966 3.964)" fill="#f4f5f9"/>
    </g>
    <g id="Group_3631" data-name="Group 3631" transform="translate(65.004 0)">
      <rect id="Rectangle_2" data-name="Rectangle 2" width="42.005" height="0.887" transform="translate(13.903 18.56)" fill="#e5f2fa"/>
      <rect id="Rectangle_3" data-name="Rectangle 3" width="42.301" height="0.887" transform="translate(20.115 23.885)" fill="#e5f2fa"/>
      <rect id="Rectangle_4" data-name="Rectangle 4" width="42.301" height="0.592" transform="translate(0 30.689)" fill="#e5f2fa"/>
      <rect id="Rectangle_5" data-name="Rectangle 5" width="42.005" height="0.592" transform="translate(8.579 38.675)" fill="#e5f2fa"/>
      <rect id="Rectangle_6" data-name="Rectangle 6" width="28.989" height="0.887" transform="translate(30.172 51.987)" fill="#e5f2fa"/>
      <path id="Path_2" data-name="Path 2" d="M934.107,185.333a2.953,2.953,0,0,0-2.475,2.37c-.453,1.673-.209,2.335-.453,3s-1.116,1.185-1.394,1.5.505.967.505.967a2.684,2.684,0,0,1-.209.627c-.131.235.157.392.47.627s.575.021.732.308-.6.789-.732,1.025.131.654,0,.941-.1.915.183,1.1a12.526,12.526,0,0,0,2.588.314,3.037,3.037,0,0,1,1.725.81c.314.392.471.758.549,2.013s-.81,2.3-.758,3.215.523,1.1.889.314a44.827,44.827,0,0,1,4.1-4.993,7.18,7.18,0,0,1,2.353-1.2c.68-.235.627-4.052-.836-5.934s-5.49-4.627-5.751-5.359A5.208,5.208,0,0,0,934.107,185.333Z" transform="translate(-916.022 -183.056)" fill="#f8bdc5"/>
      <path id="Subtraction_4" data-name="Subtraction 4" d="M7.364,0C7.2,0,7.027.175,6.878.494A20.151,20.151,0,0,1,4.9,3.079C4.03,4.12,3.074,5.2,2.774,5.487A6.707,6.707,0,0,1,.421,6.69C.147,6.785-.018,7.472,0,8.441a4.135,4.135,0,0,1,.122-.989C.2,7.19.3,7.03.421,6.988a6.707,6.707,0,0,0,2.353-1.2C3.074,5.5,4.03,4.419,4.9,3.377A20.147,20.147,0,0,0,6.878.792C7.027.474,7.2.3,7.364.3c.207,0,.359.282.4.737A1.507,1.507,0,0,0,7.767.808a1.53,1.53,0,0,0-.135-.6A.319.319,0,0,0,7.364,0ZM7.008,4.015h0a2.6,2.6,0,0,0,0,.307A6.2,6.2,0,0,0,7.2,5.651a1.858,1.858,0,0,0,.363.683,2.264,2.264,0,0,0,.794.542,2.845,2.845,0,0,0,.931.268,11.991,11.991,0,0,1,2.588.314.7.7,0,0,1,.251.528.916.916,0,0,0-.251-.827,4.1,4.1,0,0,0-1.216-.216c-.526-.05-1.086-.083-1.372-.1a2.845,2.845,0,0,1-.931-.268,2.264,2.264,0,0,1-.794-.542c-.324-.4-.472-.774-.549-2.013Zm5.023,4.608a1.035,1.035,0,0,0,.024.431c.006.033.013.067.019.1a.842.842,0,0,0-.019-.4c-.008-.044-.017-.089-.024-.133Zm-.678,1.65h0a.251.251,0,0,0-.031.25.346.346,0,0,0,.333.176.7.7,0,0,1,.4.132l.125.091a1.522,1.522,0,0,1,.325.278l.021-.04c.113-.2-.089-.35-.346-.536l-.125-.091a.7.7,0,0,0-.4-.132.363.363,0,0,1-.3-.128Zm1.024,1.569h0c-.039.135-.061.243-.061.244a2.206,2.206,0,0,1,.528.64c.074-.114.039-.277-.1-.483a2.562,2.562,0,0,0-.363-.4Z" transform="translate(26.583 21.899) rotate(180)" fill="#dfaab1"/>
      <path id="Path_12" data-name="Path 12" d="M895.065,747a6.81,6.81,0,0,1,1.394.244,18.433,18.433,0,0,1,2.37,1.882c.418.3,1.76,1.046,1.76,1.656s-2.422,2.963-3,3.433-1.063.174-1.76.732-1.115,1.882-2.771,3.015a6.02,6.02,0,0,1-4.2,1.238c-1.429-.07-1.168-1.063-1.185-1.586s.959-1.447,1.185-2.283a19.926,19.926,0,0,1,1.429-2.405c.192-.523.035-.279,0-1.429a2.35,2.35,0,0,1,.523-1.865c.314-.436,3.207-1.6,3.59-2.057A2.144,2.144,0,0,1,895.065,747Z" transform="translate(-869.608 -685.989)" fill="#000b55"/>
      <path id="Path_1" data-name="Path 1" d="M776.93,166.317c.784.418,1.621.575,1.882,1.778a5.4,5.4,0,0,0,.732,2.248c.471.732.1,1.046,0,2.144s.366,1.935.575,1.1,2.405-2.2,3.66-.418a9.33,9.33,0,0,1,1.464,4.967c.035,1.011-.174,1.081.837,1.185a2.523,2.523,0,0,1,1.778,1.325c.1.244,1.22.122,2.231.61s2.823,1.412,3.381,1.586a20.551,20.551,0,0,1,3.834.941c1.22.593,9.063-3.067,3.346-8.226s-6-3.555-7.843-6.135-1.534-4.113-5.159-5.089-5.682-.906-7.529-.488A6.268,6.268,0,0,0,776.93,166.317Z" transform="translate(-760.153 -163.551)" fill="#6e464e"/>
      <path id="Path_11" data-name="Path 11" d="M940.153,731.714a13.325,13.325,0,0,0,1.613,1c.612.254.777.373.538.792a3.082,3.082,0,0,1-1.135,1.285c-.762.538-2.584.792-2.988,1.15s-.613.1-.613-.448a1.716,1.716,0,0,0-.254-1.15c-.224-.3.732-.478,1.255-.941S940.153,731.714,940.153,731.714Z" transform="translate(-916.616 -672.302)" fill="#c7d3fa"/>
      <path id="Path_4" data-name="Path 4" d="M1015.909,320.4c-.706-.261-1.516.209-2.457,1.333s-1.333,3.581-1.49,4.941a12.7,12.7,0,0,1-1.307,3.451c-.34.837,0,1.15-.34,1.333s-1.621-.5-2.2-.967-1.83-1.176-1.935-1.464-.309-1.035-.894-1.265a2.654,2.654,0,0,1-1.213-1.318,11.386,11.386,0,0,0-1.736-2.51c-.46-.293-.774.1-.481.774s.837,1.171.983,1.527-.418,0-.711-.481a7.792,7.792,0,0,0-1.464-1.715c-.293-.146-1.13.021-.481.878s1.109,1.3,1.171,1.631-.648-.46-.983-.795-.753-.795-1.067-1.046-1.067.146-.272,1.046,1.736,1.673,1.882,2.008-.146.418-.334.293a15.721,15.721,0,0,0-1.924-1.129c-.5-.188-.628.335.1.837a26.078,26.078,0,0,1,2.405,1.548,6.873,6.873,0,0,0,1.82,1.485c.585.23.732.063,1.087.46s3.869,3.493,4.476,4.225a6.885,6.885,0,0,0,2.8,1.569c.669.188,1.767-1.4,2.1-1.966s.915-1.3,1.019-1.548.146-5.229.418-6.86S1015.909,320.4,1015.909,320.4Z" transform="translate(-996.491 -303.932)" fill="#f8bdc5"/>
      <path id="Subtraction_1" data-name="Subtraction 1" d="M4.439,0a.977.977,0,0,0-.55.235,3.838,3.838,0,0,0-.577.556,8.6,8.6,0,0,0-.855,1.191c-.162.278-.387.6-.586.879a5.316,5.316,0,0,0-.434.668c-.042.1-.074.968-.115,2.066-.06,1.611-.141,3.817-.3,4.794C.75,12.005.007,16.617,0,16.663c.033.012.066.023.1.032a1.316,1.316,0,0,1,0-.154,10.95,10.95,0,0,1,.651-2.193c.245-.691.523-1.474.732-2.2a6.967,6.967,0,0,0,.343-1.931C1.787,8.5,1.753,4.979,1.752,4.83h0A12.516,12.516,0,0,1,3.947.751.719.719,0,0,1,4.46.564a2.325,2.325,0,0,1,1,.307,8.615,8.615,0,0,1,1.17.752c.8.594,1.589,1.312,2.167,1.835l0,0,.182.165c.577.522,1.249,1.083,1.893,1.582a9.4,9.4,0,0,0,1.174.823.537.537,0,0,0,.138.041.865.865,0,0,1-.357-.264c-.139-.155-.767-.729-1.5-1.394-1.163-1.062-2.61-2.384-2.98-2.831A4.654,4.654,0,0,0,5.979.6,8.5,8.5,0,0,0,4.554.015.425.425,0,0,0,4.439,0Z" transform="translate(19.418 33.088) rotate(180)" fill="#dfaab1"/>
      <path id="Path_8" data-name="Path 8" d="M967.757,594.87a24.222,24.222,0,0,0-3.744.167c-.272.1,1.966.878,3.221,2.3s2.531,3.514,3.6,4.643,1.318.795.9,1.255a34.9,34.9,0,0,1-2.489,2.489c-.565.439-.774-.126-2.008-1.088s-7.006-4.434-8.6-5.542-2.761-1.736-3.472-3.513.607-2.865,1.715-4.057a27.042,27.042,0,0,1,5.5-3.681c.794-.335,2.719,3.995,3.471,4.831s2.029,2.091,1.9,2.2" transform="translate(-947.978 -543.458)" fill="#f8bdc5"/>
      <path id="Subtraction_3" data-name="Subtraction 3" d="M.36,0h0L.192.182.161.216C.051.337-.005.4,0,.451s.066.1.188.185a5.99,5.99,0,0,1,.9.8A24.249,24.249,0,0,1,2.865,3.712c.6.824,1.212,1.675,1.824,2.368A9.741,9.741,0,0,0,7.366,8c.343.185.569.307.566.362,0,.01-.008.017-.023.023a20.743,20.743,0,0,1-3.255.171c-.168,0-.333,0-.489,0a.026.026,0,0,0-.009.019A7.111,7.111,0,0,0,5.332,9.952c.255.27.519.55.737.792a13.493,13.493,0,0,1,1.114,1.8c.388.686.828,1.464,1.228,2.052.458.673.8,1,1.037,1a.238.238,0,0,0,.093-.018l.086-.038a28.4,28.4,0,0,1-1.51-2.48A14.659,14.659,0,0,0,6.906,11.1c-.236-.262-.523-.566-.8-.859A7.728,7.728,0,0,1,4.829,8.739a.028.028,0,0,1,.009-.021c.17,0,.349,0,.531,0a22.533,22.533,0,0,0,3.536-.185c.016-.006.024-.014.025-.025,0-.06-.242-.193-.614-.393A10.583,10.583,0,0,1,5.407,6.038C4.742,5.285,4.073,4.36,3.426,3.465A26.342,26.342,0,0,0,1.5.994,6.507,6.507,0,0,0,.519.125,1.591,1.591,0,0,1,.36,0Z" transform="translate(23.944 59.959) rotate(180)" fill="#dfaab1"/>
      <path id="Path_10" data-name="Path 10" d="M622.591,853.833a6.355,6.355,0,0,0,1.882.192c1.063.07,2.37,1.168,2.649,1.255a8.355,8.355,0,0,1,1.22.1c.628.174.854.749.244,1.778s-2.457,3.277-3.294,4.706-2.841,4.479-4.13,5.054-2.039.418-2.527-.174-.1-1.359.279-2.057.784-.871.575-1.6a10.408,10.408,0,0,1,.139-2.562c0-.68.4-2.022.3-2.37a2.291,2.291,0,0,1-.227-.993c.052-.348,1.76-1.15,2.248-2.056S622.591,853.833,622.591,853.833Z" transform="translate(-569.808 -781.651)" fill="#000b55"/>
      <path id="Path_9" data-name="Path 9" d="M679.325,842.167a3.381,3.381,0,0,0,1.185.749c.261.087.1.68-.1,1.342a9.288,9.288,0,0,1-2.109,2.492c-.854.836-1.028.749-1.028.61s-.383-1.412-.523-1.865-.261-.54-.209-.627,1.15-1.29,1.551-1.673S679.325,842.167,679.325,842.167Z" transform="translate(-627.586 -771.205)" fill="#c7d3fa"/>
      <path id="Path_7" data-name="Path 7" d="M692.842,668.089a8.181,8.181,0,0,0,1.439,3.639c.92,1.485,3.3,2.886,6.149,5.4s5.04,8.324,5.27,8.847.23.376-.167.941a32,32,0,0,1-2.761,2.217c-.188.23-1.255-2.28-2.342-3.7s-4.392-5-5.458-6.128a10.586,10.586,0,0,0-3.409-2.175,5.388,5.388,0,0,1-2.447-2.217,27.811,27.811,0,0,0-2.8-3.179,2.035,2.035,0,0,1-.711-1.046c-.251-.711-1.213-2.51.523-2.823s3.262.334,4.434.23A14.183,14.183,0,0,1,692.842,668.089Z" transform="translate(-653.693 -615.047)" fill="#f8bdc5"/>
      <path id="Subtraction_2" data-name="Subtraction 2" d="M.486,0A.037.037,0,0,0,.457.015,4.084,4.084,0,0,1,0,.381C.161.6.4,1.033.669,1.53A21.638,21.638,0,0,0,2.244,4.108C3.45,5.685,7.124,9.641,7.969,10.535a9.329,9.329,0,0,0,3.011,2c.184.089.375.181.565.277a5.67,5.67,0,0,1,2.567,2.325,28.386,28.386,0,0,0,2.94,3.334c.042.042.086.081.127.119a1.98,1.98,0,0,1,.619.978c.031.087.07.187.117.3.061.153.13.327.194.511a3.586,3.586,0,0,0-.369-1.637c-.044-.111-.082-.206-.111-.289a1.888,1.888,0,0,0-.589-.932c-.04-.036-.081-.073-.122-.114a27,27,0,0,1-2.8-3.179,6.191,6.191,0,0,0-1.02-1.273,5.931,5.931,0,0,0-1.427-.944c-.181-.091-.363-.179-.539-.264a8.9,8.9,0,0,1-2.87-1.911C7.453,8.992,3.95,5.221,2.8,3.717A20.622,20.622,0,0,1,1.3,1.26C.912.556.607,0,.486,0Z" transform="translate(49.536 74.097) rotate(180)" fill="#dfaab1"/>
      <path id="Path_108" data-name="Path 108" d="M955.609,314.243s-.523-.179-2.076,1.6-2.465,2.913-2.7,3.212-.329.687-.194.762a10.454,10.454,0,0,0,2.435-2.271C953.667,316.722,955.609,314.243,955.609,314.243Z" transform="translate(-931.205 -298.48)" fill="#dfaab1"/>
      <path id="Path_6" data-name="Path 6" d="M831.379,565.137c.188.9.565,2.321.711,3.325a18.9,18.9,0,0,0,2.091,4.224c.544.92.837,1.255.4,1.652a5.413,5.413,0,0,1-2.489,1.025c-1,.146-2.97-.586-3.534.293s-.146,1.715-.46,1.945-1.255-1.757-2.175-2.426a31.6,31.6,0,0,1-3.116-3.2c-.607-.648-1.046-.481-2.029-.125s-2.426.063-3.179.669-1.192.9-1.589.878a8.7,8.7,0,0,1-2.844-2.217,14.279,14.279,0,0,1-3.1-4.015c-.795-1.715-.481-1.673-.209-1.841s1.359-.606,1.987-.878,3.137-1.129,3.848-1.359,1.067.063,1.339-.314,2.28,1.485,3.409,2.112,6.483.565,8.428.251A4.55,4.55,0,0,1,831.379,565.137Z" transform="translate(-795.643 -520.983)" fill="#0081c8"/>
      <path id="Subtraction_5" data-name="Subtraction 5" d="M.2,0h0A.094.094,0,0,0,.139.018C0,.117,0,.331,0,.6,0,.684,0,.769,0,.86A6.16,6.16,0,0,0,1.144,2.2a23.824,23.824,0,0,1,2.68,2.8c.224.259.417.483.558.639a1.187,1.187,0,0,0,.916.481,2.233,2.233,0,0,0,.627-.113,1.458,1.458,0,0,1-.495-.37c-.136-.146-.322-.354-.538-.6a22.517,22.517,0,0,0-2.578-2.6A7.045,7.045,0,0,1,1.017.92C.669.426.368,0,.2,0ZM12.187,4.221h0a1.023,1.023,0,0,0-.41.1,5.619,5.619,0,0,1,1.195.826,18.548,18.548,0,0,1,1.594,1.522l.283.3h0a13.929,13.929,0,0,1,2.916,4,6.538,6.538,0,0,1,.493,1.388c.049-.025.088-.046.116-.064s.049-.028.073-.041c.246-.133.441-.238-.282-1.8a13.162,13.162,0,0,0-2.822-3.733l-.274-.282a16.845,16.845,0,0,0-1.712-1.555,3,3,0,0,0-1.132-.661ZM8.668,5.564c-.115.009-.208.017-.292.025.111-.008.206-.016.292-.025Z" transform="translate(32.544 56.638) rotate(180)" fill="#005482"/>
      <path id="Path_3" data-name="Path 3" d="M852.117,313.09c-2.117-.052-3.921-.2-4.732.741s-.994,3.921-.889,5.385,1.621,1.935,3.163,1.935,3.137-1.725,3.4-2.17.34.261.444,1.621-.81,4.183-.444,5.307.706,1.046.261,1.281a2.775,2.775,0,0,0-1.412,1.752,3.91,3.91,0,0,0,.549,2.588c.288.5,1.7.837,2.2.863s1.176.967,1.412,1.307a17.348,17.348,0,0,1,2.614,4.862c.5,2.013.706,1.542-.628,2.013a17.272,17.272,0,0,1-6.745.889,10.992,10.992,0,0,1-6.718-3.059c-.6-.863-2.484-6.745-3.059-9.1a50.413,50.413,0,0,1-1.516-7.294,35.431,35.431,0,0,1-.366-5.7,8.7,8.7,0,0,1,2.327-4.1c.5-.444.941-.235,1.02.314s-.366,3.634-.261,3.921,2.065-2.588,2.9-3.477,1.124-1.438,2.17-1.621a4.446,4.446,0,0,1,3.137.314A3.05,3.05,0,0,1,852.117,313.09Z" transform="translate(-823.053 -295.772)" fill="#eb6576"/>
      <path id="Path_98" data-name="Path 98" d="M899.725,322.281c-2.094,1.15-2.617,1.176-3.3,3.843a4,4,0,0,0,2.17,4.784c1.124.471,4.758-2.484,4.758-2.484a10.554,10.554,0,0,1-.3,1.917c-.261,1.046-2.771,2.649-3.869,2.667s-3.224-2.213-3.608-3.1a5.3,5.3,0,0,1-.488-3.364,10.537,10.537,0,0,1,1.708-3.712,1.969,1.969,0,0,1,1.882-1.063,5.883,5.883,0,0,1,1.516.331Z" transform="translate(-873.142 -305.215)" fill="#dfaab1"/>
      <path id="Path_5" data-name="Path 5" d="M796.058,324.673A24.181,24.181,0,0,1,802.1,326.3c2.363.962,5.145,1.694,6.713,2.844s1.84,2.363.9,4.475-4.831,6.128-5.354,6.651-.69,1.046-1.234,1.276-.335.4-.795.607-.795.146-.607.69.544.816.251,1.527-.774.69-1.171.837-3.012-.209-3.723-1.8.795-3.995,1.338-4.141a3.418,3.418,0,0,1,2.217-.146c.962.314,1.443.167,1.694-.439s1.255-1.945,1.715-2.886a6.868,6.868,0,0,0,.92-3.2c-.042-1.171-1.025-.732-2.008-.941s-2.7-.648-3.012-.69-.544-.335-.627.272a5.883,5.883,0,0,1-2.991,3.242c-1.422.4-4.58-1.694-4.873-3.639a8.04,8.04,0,0,1,1.715-5.437C794.071,324.3,796.058,324.673,796.058,324.673Z" transform="translate(-769.21 -307.769)" fill="#f8bdc5"/>
      <path id="Path_101" data-name="Path 101" d="M959.213,253.213s1.485-.795,2.175,1.422-.711,2.133-1.3,1.84,1.359.188,1.129-.941-.293-1.652-1.025-2.029S959.213,253.213,959.213,253.213Z" transform="translate(-938.076 -243.713)" fill="#dfaab1"/>
      <ellipse id="Ellipse_1" data-name="Ellipse 1" cx="0.887" cy="1.035" rx="0.887" ry="1.035" transform="translate(43.78 26.251)" fill="#0081c8"/>
      <ellipse id="Ellipse_2" data-name="Ellipse 2" cx="0.444" cy="0.592" rx="0.444" ry="0.592" transform="translate(37.568 34.534)" fill="#0081c8"/>
      <circle id="Ellipse_3" data-name="Ellipse 3" cx="0.444" cy="0.444" r="0.444" transform="translate(50.288 46.366)" fill="#0081c8"/>
      <circle id="Ellipse_4" data-name="Ellipse 4" cx="0.444" cy="0.444" r="0.444" transform="translate(9.762 20.927)" fill="#0081c8"/>
      <ellipse id="Ellipse_5" data-name="Ellipse 5" cx="0.592" cy="0.444" rx="0.592" ry="0.444" transform="translate(8.578 42.521)" fill="#0081c8"/>
    </g>
  </g>
</svg>
