<svg xmlns="http://www.w3.org/2000/svg" width="18.851" height="27.009" viewBox="0 0 18.851 27.009">
  <g id="_8499e025467805a7a55afe9ab7429988" data-name="8499e025467805a7a55afe9ab7429988" transform="translate(-157.9 -9.932)">
    <path id="Path_180" data-name="Path 180" d="M157.9,34.7c.251-.606.518-1.2.747-1.819,2.323-6.2,4.629-12.4,8.228-17.933a10.839,10.839,0,0,1,7.6-4.894c.372-.063.854-.218,1.116-.041a2.686,2.686,0,0,1,1.157,1.328c.074.292-.557,1-.992,1.182-.9.366-1.9.427-2.816.75a7.422,7.422,0,0,0-4.114,3.511c.907,1.138,1.9,2.235,2.722,3.469a13.2,13.2,0,0,1,1.485,3.1,1.37,1.37,0,0,1-1.152,1.959c-1.744.336-3.486.7-5.409,1.088.9,2.067,1.78,4.086,2.662,6.106.267.612.565,1.212.8,1.838a1.653,1.653,0,0,1-.868,2.232c-.893.488-1.562.1-1.973-.807-1.08-2.386-2.138-4.786-3.34-7.487-.9,2.455-1.653,4.69-2.538,6.867-.289.711-.84,1.689-1.389,1.786-.57.1-1.279-.725-1.929-1.144ZM169.192,21.32c-.474.7-.86,1.265-1.414,2.083.964-.207,1.6-.342,2.386-.507C169.851,22.381,169.606,21.987,169.192,21.32Z" transform="translate(0 0)" fill="#0081c8"/>
    <path id="Path_181" data-name="Path 181" d="M620.518,177.414a2.231,2.231,0,0,1-2.227,2.265,2.168,2.168,0,0,1-2.108-2.224,2.228,2.228,0,0,1,2.133-2.356A2.29,2.29,0,0,1,620.518,177.414Z" transform="translate(-445.655 -160.616)" fill="#0081c8"/>
  </g>
</svg>
